mtllib CollisionBlock2.mtl
v 1.000000 1.000000 -0.500000 1.000000 1.000000 1.000000
v 1.000000 1.000000 0.500000 1.000000 1.000000 1.000000
v 0.000000 1.000000 -0.500000 1.000000 1.000000 1.000000
v 0.000000 1.000000 0.500000 1.000000 1.000000 1.000000
v 1.000000 0.000000 -0.500000 1.000000 1.000000 1.000000
v 0.000000 0.000000 -0.500000 1.000000 1.000000 1.000000
v 1.000000 -0.000000 0.500000 1.000000 1.000000 1.000000
v 0.000000 -0.000000 0.500000 1.000000 1.000000 1.000000
vt 0.000100 0.000100
vt 0.999900 0.999900
vt 0.000100 0.999900
vt 0.999900 0.000100
vn -0.577349 0.577349 0.577349
vn -0.577349 -0.577349 -0.577349
vn -0.577349 -0.577349 0.577349
vn -0.577349 0.577349 -0.577349
vn 0.577349 -0.577349 -0.577349
vn 0.577349 0.577349 -0.577349
vn 0.577349 -0.577349 0.577349
vn 0.577349 0.577349 0.577349
usemtl Tile
f 4/1/1 6/2/2 8/3/3
f 4/1/1 3/4/4 6/2/2
f 5/4/5 8/3/3 6/1/2
f 1/4/6 7/3/7 5/1/5
f 3/4/4 5/3/5 6/1/2
f 3/2/4 2/1/8 1/4/6
f 2/4/8 8/3/3 7/1/7
f 2/4/8 4/2/1 8/3/3
f 3/2/4 4/3/1 2/1/8
f 3/4/4 1/2/6 5/3/5
f 1/4/6 2/2/8 7/3/7
f 5/4/5 7/2/7 8/3/3
