mtllib cheese.mtl
v 1.000000 1.000000 -1.000000 1.000000 1.000000 1.000000
v 1.000000 1.000000 1.000000 1.000000 1.000000 1.000000
v -1.000000 1.000000 -1.000000 1.000000 1.000000 1.000000
v -1.000000 1.000000 1.000000 1.000000 1.000000 1.000000
v 1.000000 -1.000000 -1.000000 1.000000 1.000000 1.000000
v -1.000000 -1.000000 -1.000000 1.000000 1.000000 1.000000
v 1.000000 -1.000000 1.000000 1.000000 1.000000 1.000000
v -1.000000 -1.000000 1.000000 1.000000 1.000000 1.000000
vt 0.000100 0.000100
vt 0.999900 0.999900
vt 0.000100 0.999900
vt 0.999900 0.000100
vn -1.000000 0.000000 0.000000
vn 0.000000 -1.000000 -0.000000
vn 1.000000 -0.000000 -0.000000
vn 0.000000 0.000000 -1.000000
vn 0.000000 1.000000 0.000000
vn 0.000000 -0.000000 1.000000
usemtl Material.004
f 4/1/1 6/2/1 8/3/1
f 4/1/1 3/4/1 6/2/1
f 5/4/2 8/3/2 6/1/2
f 1/4/3 7/3/3 5/1/3
f 3/4/4 5/3/4 6/1/4
f 3/2/5 2/1/5 1/4/5
f 2/4/6 8/3/6 7/1/6
f 2/4/6 4/2/6 8/3/6
f 3/2/5 4/3/5 2/1/5
f 3/4/4 1/2/4 5/3/4
f 1/4/3 2/2/3 7/3/3
f 5/4/2 7/2/2 8/3/2
