mtllib Cave.mtl
v 105.227516 26.159771 0
v 78.392479 20.704872 0
v 56.68248 4.931635 0
v 48.389999 -20.59 0 0 0.019608 0.490196
v 91.129692 26.159771 -52.61377
v 67.88987 20.704872 -39.196247
v 49.088463 4.931635 -28.341248
v 41.906963 -20.59 -24.195005 0 0.019608 0.490196
v 52.613754 26.159771 -91.129707
v 39.196236 20.704872 -67.889885
v 28.341238 4.931635 -49.08847
v 24.194998 -20.59 -41.906971 0 0.019608 0.490196
v 0.000008 26.159771 -105.227516
v 0.000006 20.704872 -78.392479
v 0.000004 4.931635 -56.68248
v 0.000004 -20.59 -48.389999 0 0.019608 0.490196
v -52.613743 26.159771 -91.129715
v -39.196228 20.704872 -67.889885
v -28.341232 4.931635 -49.088474
v -24.194992 -20.59 -41.906975 0 0.019608 0.490196
v -91.129684 26.159771 -52.613785
v -67.88987 20.704872 -39.196259
v -49.088459 4.931635 -28.341253
v -41.906963 -20.59 -24.195011 0 0.019608 0.490196
v -105.227516 26.159771 -0.000009
v -78.392479 20.704872 -0.000007
v -56.68248 4.931635 -0.000005
v -48.389999 -20.59 -0.000004 0 0.019608 0.490196
v -91.129715 26.159771 52.613739
v -67.889885 20.704872 39.196224
v -49.088474 4.931635 28.34123
v -41.906975 -20.59 24.19499 0 0.019608 0.490196
v -52.613743 26.159771 91.129715
v -39.196228 20.704872 67.889885
v -28.341232 4.931635 49.088474
v -24.194992 -20.59 41.906975 0 0.019608 0.490196
v 0.000008 26.159771 105.227516
v 0.000006 20.704872 78.392479
v 0.000004 4.931635 56.68248
v 0.000004 -20.59 48.389999 0 0.019608 0.490196
v 52.613754 26.159771 91.129707
v 39.196236 20.704872 67.889885
v 28.341238 4.931635 49.08847
v 24.194998 -20.59 41.906971 0 0.019608 0.490196
v 91.129692 26.159771 52.61377
v 67.88987 20.704872 39.196247
v 49.088463 4.931635 28.341248
v 41.906963 -20.59 24.195005 0 0.019608 0.490196
v 0 8.93362 -170.885696 0 0.662745 1
v 38.025642 8.93362 -166.601227 0 0.662745 1
v 74.144524 8.93362 -153.962692 0 0.662745 1
v 106.545494 8.93362 -133.603806 0 0.662745 1
v 133.603821 8.93362 -106.545486 0 0.662745 1
v 153.962692 8.93362 -74.144524 0 0.662745 1
v 0 105.03067 0
v 166.601227 8.93362 -38.025654 0 0.662745 1
v 170.885696 8.93362 -0.000013 0 0.662745 1
v 166.601242 8.93362 38.025627 0.003922 0.662745 1
v 153.962708 8.93362 74.144501 0.007843 0.666667 1
v 133.603821 8.93362 106.545486 0 0.662745 1
v 106.545471 8.93362 133.603821 0 0.662745 1
v 74.144501 8.93362 153.962708 0 0.662745 1
v 38.025608 8.93362 166.601242 0 0.662745 1
v -0.000056 8.93362 170.885696 0 0.662745 1
v -38.025715 8.93362 166.601212 0.003922 0.662745 1
v -74.1446 8.93362 153.962662 0 0.662745 1
v -106.545563 8.93362 133.603745 0 0.662745 1
v -133.603882 8.93362 106.545395 0 0.662745 1
v -153.962753 8.93362 74.144409 0 0.662745 1
v -166.601257 8.93362 38.025497 0 0.662745 1
v -170.885696 8.93362 -0.000165 0 0.662745 1
v -166.601196 8.93362 -38.025818 0 0.662745 1
v -153.962616 8.93362 -74.144699 0 0.662745 1
v -133.603683 8.93362 -106.545647 0 0.662745 1
v -106.545311 8.93362 -133.603958 0 0.662745 1
v -74.144302 8.93362 -153.962799 0 0.662745 1
v -38.025391 8.93362 -166.601303 0 0.662745 1
v -25.156387 -6.294163 81.911247
v 81.911247 -6.294154 25.156384
v -81.911247 -6.294106 -25.156391
v 25.156387 -6.294096 -81.911247
v 42.799446 -20.913914 12.21735 0 0.019608 0.490196
v 42.799446 0.073544 12.217358
v 42.799446 -20.913908 -12.127137 0 0.019608 0.490196
v 42.799446 0.073549 -12.127131
v 50.799446 -20.913914 12.21735 0 0.019608 0.490196
v 50.799446 0.073544 12.217358
v 50.799446 -20.913908 -12.127137 0 0.019608 0.490196
v 50.799446 0.073549 -12.127131
v -60.59 -20.41762 60.589996 0 0.019608 0.490196
v 60.59 -20.41762 60.589996 0 0.019608 0.490196
v -60.59 -20.417562 -60.590004 0 0.019608 0.490196
v 60.59 -20.417562 -60.590004 0 0.019608 0.490196
v 25.845654 -7.294163 81.696381
v 81.696381 -7.294145 -25.845657
v -81.696381 -7.294114 25.84565
v -25.845654 -7.294096 -81.696381
v -60.59 -8.294159 60.59
v 60.59 -8.294159 60.59
v -60.59 -8.294101 -60.59
v 60.59 -8.294101 -60.59
vt 0.5 1
vt 0.61126 0.987464
vt 0.5 0.5
vt 0.716942 0.950484
vt 0.811745 0.890916
vt 0.890916 0.811745
vt 0.950484 0.716942
vt 0.987464 0.61126
vt 1 0.5
vt 0.987464 0.38874
vt 0.950484 0.283058
vt 0.890916 0.188255
vt 0.811745 0.109084
vt 0.716942 0.049516
vt 0.61126 0.012536
vt 0.5 0
vt 0.388739 0.012536
vt 0.283058 0.049516
vt 0.188255 0.109084
vt 0.109084 0.188255
vt 0.049515 0.283058
vt 0.012536 0.38874
vt 0 0.5
vt 0.012536 0.611261
vt 0.049516 0.716942
vt 0.109085 0.811745
vt 0.188256 0.890916
vt 0.283059 0.950485
vt 0.38874 0.987464
vt 3.036168 -2.036168
vt -2.036168 3.036168
vt -2.036168 -2.036168
vt 3.036168 3.036168
vt -3.488871 1.588198
vt -1.676138 2.686653
vt -2.41256 3.425797
vt -1.506903 1.054194
vt -0.970308 1.972793
vt -0.406904 1.361449
vt -3.496778 -0.549555
vt -2.478062 1.316756
vt -1.507474 -0.014001
vt -0.689776 0.18146
vt -0.706728 0.813853
vt -2.427267 -2.407328
vt -2.482991 -0.275923
vt -1.685616 -1.660675
vt -0.969962 -0.943203
vt -0.568483 -3.480286
vt -0.03761 -1.481833
vt -0.355819 -0.362463
vt 1.577201 -3.479129
vt -0.29977 -2.462052
vt 1.039299 -1.484498
vt 0.207202 -0.670972
vt 2.685757 -1.666213
vt 1.300985 -2.463758
vt 1.971431 -0.950994
vt 0.84928 -0.660673
vt 4.496778 -0.550024
vt 3.431925 -2.405663
vt 3.482151 -0.285345
vt 2.508371 -0.026102
vt 1.398617 -0.334846
vt 3.476267 1.305533
vt 2.50593 1.039717
vt 1.708224 0.217309
vt 3.40308 3.425082
vt 4.485088 1.586266
vt 2.671505 2.677247
vt 1.964643 1.958737
vt 1.695291 0.845068
vt 1.551407 4.47557
vt 1.288267 3.464738
vt 0.787695 1.66197
vt 1.361263 1.376908
vt -0.568824 4.47557
vt -0.298068 3.468844
vt 1.029569 2.48579
vt -0.041562 2.494502
vt 0.138337 1.673338
vt 0 0
vt 1 1
vt 0 1
vt 1 0
vn -0.055144 -0.870306 0.489414
vn -0.162666 -0.870306 0.464873
vn -0.262032 -0.870306 0.417021
vn -0.348258 -0.870306 0.348258
vn 0 0 0
vn 0.464873 -0.870306 -0.162665
vn 0.489414 -0.870306 -0.055143
vn 0.489414 -0.870306 0.055144
vn 0.464873 -0.870306 0.162666
vn 0.41702 -0.870306 0.262032
vn 0.348257 -0.870306 0.348258
vn 0.262031 -0.870306 0.417021
vn -0.417021 -0.870306 0.262032
vn -0.464873 -0.870306 0.162666
vn -0.489414 -0.870306 0.055144
vn -0.489414 -0.870306 -0.055144
vn -0.464873 -0.870306 -0.162666
vn -0.417021 -0.870306 -0.262032
vn -0.348258 -0.870306 -0.348258
vn -0.262032 -0.870306 -0.417021
vn -0.162666 -0.870306 -0.464873
vn -0.055144 -0.870306 -0.489414
vn 0.055144 -0.870306 -0.489414
vn 0.162666 -0.870306 -0.464873
vn 0.262032 -0.870306 -0.417021
vn 0.348258 -0.870306 -0.348258
vn 0.417021 -0.870306 -0.262031
vn 0.162665 -0.870306 0.464873
vn 0.055143 -0.870306 0.489414
vn 0 1 0
vn -0.172491 0.979949 0.099582
vn -0.372234 0.928129 0
vn -0.199194 0.979949 0
vn -0.683981 0.61333 0.394879
vn -0.789788 0.61333 0
vn -0.951048 0.309 0
vn -0.099582 0.979949 0.172491
vn -0.322367 0.928129 0.186102
vn -0.394879 0.61333 0.683981
vn -0.475509 0.309 0.823634
vn -0.823634 0.309 0.475509
vn 0 0.979949 0.199194
vn -0.186102 0.928129 0.322367
vn 0 0.928129 0.372234
vn 0 0.61333 0.789788
vn 0.099582 0.979949 0.172491
vn 0.394879 0.61333 0.683981
vn 0 0.309 0.951048
vn 0.172491 0.979949 0.099582
vn 0.186102 0.928129 0.322367
vn 0.683981 0.61333 0.394879
vn 0.475509 0.309 0.823634
vn 0.372234 0.928129 0
vn 0.322367 0.928129 0.186102
vn 0.789788 0.61333 0
vn 0.823634 0.309 0.475509
vn 0.172491 0.979949 -0.099582
vn 0.199194 0.979949 0
vn 0.322367 0.928129 -0.186102
vn 0.683981 0.61333 -0.394879
vn 0.951048 0.309 0
vn 0.186102 0.928129 -0.322367
vn 0.394879 0.61333 -0.683981
vn 0.823634 0.309 -0.475509
vn 0 0.979949 -0.199194
vn 0.099582 0.979949 -0.172491
vn 0 0.928129 -0.372234
vn 0 0.61333 -0.789788
vn 0.475509 0.309 -0.823634
vn -0.099582 0.979949 -0.172491
vn -0.186102 0.928129 -0.322367
vn -0.475509 0.309 -0.823634
vn 0 0.309 -0.951048
vn -0.172491 0.979949 -0.099582
vn -0.322367 0.928129 -0.186102
vn -0.394879 0.61333 -0.683981
vn -0.683981 0.61333 -0.394879
vn -0.823634 0.309 -0.475509
vn -1 0 0
vn 0 0 -1
vn 0 0 1
vn 1 0 0
usemtl CA_PillarWater02_01_CA_Wall02_03.png
f 79/30/30 80/31/30 78/32/30
f 79/30/30 81/33/30 80/31/30
usemtl CA_PillarWater02_01_CA_Wall02_02.png
f 49/1/1 50/2/1 55/3/1
f 50/2/2 51/4/2 55/3/2
f 51/4/3 52/5/3 55/3/3
f 52/5/4 53/6/4 55/3/4
f 53/6/5 55/3/5 55/3/5
f 54/7/5 55/3/5 55/3/5
f 56/8/5 55/3/5 55/3/5
f 57/9/5 55/3/5 55/3/5
f 58/10/5 55/3/5 55/3/5
f 59/11/5 55/3/5 55/3/5
f 60/12/5 55/3/5 55/3/5
f 61/13/5 55/3/5 55/3/5
f 62/14/5 55/3/5 55/3/5
f 63/15/5 55/3/5 55/3/5
f 64/16/5 55/3/5 55/3/5
f 65/17/5 55/3/5 55/3/5
f 66/18/5 55/3/5 55/3/5
f 67/19/5 55/3/5 55/3/5
f 68/20/5 55/3/5 55/3/5
f 69/21/6 70/22/6 55/3/6
f 70/22/7 71/23/7 55/3/7
f 71/23/8 72/24/8 55/3/8
f 72/24/9 73/25/9 55/3/9
f 73/25/10 74/26/10 55/3/10
f 74/26/11 75/27/11 55/3/11
f 75/27/12 76/28/12 55/3/12
f 76/28/5 55/3/5 55/3/5
f 77/29/5 55/3/5 55/3/5
f 53/6/13 54/7/13 55/3/13
f 54/7/14 56/8/14 55/3/14
f 56/8/15 57/9/15 55/3/15
f 57/9/16 58/10/16 55/3/16
f 58/10/17 59/11/17 55/3/17
f 59/11/18 60/12/18 55/3/18
f 60/12/19 61/13/19 55/3/19
f 61/13/20 62/14/20 55/3/20
f 62/14/21 63/15/21 55/3/21
f 63/15/22 64/16/22 55/3/22
f 64/16/23 65/17/23 55/3/23
f 65/17/24 66/18/24 55/3/24
f 66/18/25 67/19/25 55/3/25
f 67/19/26 68/20/26 55/3/26
f 68/20/27 69/21/27 55/3/27
f 76/28/28 77/29/28 55/3/28
f 77/29/29 49/1/29 55/3/29
usemtl CA_PillarWater02_01
f 5/34/31 2/35/32 1/36/33
f 2/35/32 7/37/34 3/38/35
f 7/37/34 4/39/36 3/38/35
f 9/40/37 6/41/38 5/34/31
f 6/41/38 11/42/39 7/37/34
f 7/37/34 12/43/40 8/44/41
f 13/45/42 10/46/43 9/40/37
f 14/47/44 11/42/39 10/46/43
f 15/48/45 12/43/40 11/42/39
f 17/49/46 14/47/44 13/45/42
f 14/47/44 19/50/47 15/48/45
f 19/50/47 16/51/48 15/48/45
f 21/52/49 18/53/50 17/49/46
f 18/53/50 23/54/51 19/50/47
f 23/54/51 20/55/52 19/50/47
f 21/52/49 26/56/53 22/57/54
f 22/57/54 27/58/55 23/54/51
f 27/58/55 24/59/56 23/54/51
f 29/60/57 26/56/53 25/61/58
f 30/62/59 27/58/55 26/56/53
f 31/63/60 28/64/61 27/58/55
f 29/60/57 34/65/62 30/62/59
f 34/65/62 31/63/60 30/62/59
f 35/66/63 32/67/64 31/63/60
f 37/68/65 34/65/62 33/69/66
f 38/70/67 35/66/63 34/65/62
f 39/71/68 36/72/69 35/66/63
f 41/73/70 38/70/67 37/68/65
f 42/74/71 39/71/68 38/70/67
f 39/71/68 44/75/72 40/76/73
f 45/77/74 42/74/71 41/73/70
f 46/78/75 43/79/76 42/74/71
f 47/80/77 44/75/72 43/79/76
f 1/36/33 46/78/75 45/77/74
f 46/78/75 3/38/35 47/80/77
f 3/38/35 48/81/78 47/80/77
f 5/34/31 6/41/38 2/35/32
f 2/35/32 6/41/38 7/37/34
f 7/37/34 8/44/41 4/39/36
f 9/40/37 10/46/43 6/41/38
f 6/41/38 10/46/43 11/42/39
f 7/37/34 11/42/39 12/43/40
f 13/45/42 14/47/44 10/46/43
f 14/47/44 15/48/45 11/42/39
f 15/48/45 16/51/48 12/43/40
f 17/49/46 18/53/50 14/47/44
f 14/47/44 18/53/50 19/50/47
f 19/50/47 20/55/52 16/51/48
f 21/52/49 22/57/54 18/53/50
f 18/53/50 22/57/54 23/54/51
f 23/54/51 24/59/56 20/55/52
f 21/52/49 25/61/58 26/56/53
f 22/57/54 26/56/53 27/58/55
f 27/58/55 28/64/61 24/59/56
f 29/60/57 30/62/59 26/56/53
f 30/62/59 31/63/60 27/58/55
f 31/63/60 32/67/64 28/64/61
f 29/60/57 33/69/66 34/65/62
f 34/65/62 35/66/63 31/63/60
f 35/66/63 36/72/69 32/67/64
f 37/68/65 38/70/67 34/65/62
f 38/70/67 39/71/68 35/66/63
f 39/71/68 40/76/73 36/72/69
f 41/73/70 42/74/71 38/70/67
f 42/74/71 43/79/76 39/71/68
f 39/71/68 43/79/76 44/75/72
f 45/77/74 46/78/75 42/74/71
f 46/78/75 47/80/77 43/79/76
f 47/80/77 48/81/78 44/75/72
f 1/36/33 2/35/32 46/78/75
f 46/78/75 2/35/32 3/38/35
f 3/38/35 4/39/36 48/81/78
f 82/82/79 85/83/79 84/84/79
f 85/85/80 88/84/80 84/82/80
f 87/85/81 82/84/81 86/82/81
f 85/85/30 87/84/30 89/82/30
f 82/82/79 83/85/79 85/83/79
f 85/85/80 89/83/80 88/84/80
f 87/85/81 83/83/81 82/84/81
f 85/85/30 83/83/30 87/84/30
f 87/85/82 88/84/82 89/83/82
f 87/85/82 86/82/82 88/84/82
f 91/30/30 92/31/30 90/32/30
f 91/30/30 93/33/30 92/31/30
usemtl CA_PillarWater02_01_CA_Wall02_01.png
f 99/30/30 100/31/30 98/32/30
f 99/30/30 101/33/30 100/31/30
usemtl CA_PillarWater02_01_CA_Wall02_02.png_CA_Wall02_02.png
f 95/30/30 96/31/30 94/32/30
f 95/30/30 97/33/30 96/31/30
