mtllib Map4.mtl
v 105.227516 26.159771 0.000004
v 78.392479 20.704872 0.000003
v 56.68248 4.931635 0.000001
v 48.389999 -20.59 -0.000003 0 0.019608 0.486275
v 91.129692 26.159779 -52.613766
v 67.88987 20.704878 -39.196243
v 49.088463 4.93164 -28.341248
v 41.906963 -20.589996 -24.195009 0 0.019608 0.486275
v 52.613754 26.159786 -91.1297
v 39.196236 20.704884 -67.889885
v 28.341238 4.931643 -49.08847
v 24.194998 -20.589993 -41.906975 0 0.019608 0.486275
v 0.000008 26.159788 -105.227509
v 0.000006 20.704885 -78.392479
v 0.000004 4.931644 -56.68248
v 0.000004 -20.589993 -48.390003 0 0.019608 0.486275
v -52.613743 26.159786 -91.129707
v -39.196228 20.704884 -67.889885
v -28.341232 4.931643 -49.088474
v -24.194992 -20.589993 -41.906979 0 0.019608 0.486275
v -91.129684 26.159779 -52.613781
v -67.88987 20.704878 -39.196255
v -49.088459 4.93164 -28.341253
v -41.906963 -20.589996 -24.195015 0 0.019608 0.486275
v -105.227516 26.159771 -0.000005
v -78.392479 20.704872 -0.000004
v -56.68248 4.931635 -0.000004
v -48.389999 -20.59 -0.000007 0 0.019608 0.486275
v -91.129715 26.159763 52.613743
v -67.889885 20.704866 39.196228
v -49.088474 4.93163 28.34123
v -41.906975 -20.590004 24.194986 0 0.019608 0.486275
v -52.613743 26.159756 91.129723
v -39.196228 20.704861 67.889885
v -28.341232 4.931627 49.088474
v -24.194992 -20.590008 41.906971 0 0.019608 0.486275
v 0.000008 26.159754 105.227524
v 0.000006 20.704859 78.392479
v 0.000004 4.931626 56.68248
v 0.000004 -20.590008 48.389996 0 0.019608 0.486275
v 52.613754 26.159756 91.129715
v 39.196236 20.704861 67.889885
v 28.341238 4.931627 49.08847
v 24.194998 -20.590008 41.906967 0 0.019608 0.486275
v 91.129692 26.159763 52.613773
v 67.88987 20.704866 39.196251
v 49.088463 4.93163 28.341248
v 41.906963 -20.590004 24.195002 0 0.019608 0.486275
v 0 8.933648 -170.885696 0 0.482353 1
v 38.025642 8.933647 -166.601227 0 0.482353 1
v 74.144524 8.933645 -153.962692 0 0.482353 1
v 106.545494 8.933642 -133.603806 0 0.482353 1
v 133.603821 8.933638 -106.545486 0 0.482353 1
v 153.962692 8.933633 -74.144524 0 0.482353 1
v 0 105.03067 0.000017 0.345098 0.796078 1
v 166.601227 8.933626 -38.025654 0 0.482353 1
v 170.885696 8.93362 -0.000012 0 0.478431 1
v 166.601242 8.933615 38.025627 0 0.482353 1
v 153.962708 8.933608 74.144501 0 0.482353 1
v 133.603821 8.933603 106.545486 0 0.482353 1
v 106.545471 8.933599 133.603821 0 0.482353 1
v 74.144501 8.933596 153.962708 0 0.482353 1
v 38.025608 8.933594 166.601242 0 0.482353 1
v -0.000056 8.933593 170.885696 0 0.482353 1
v -38.025715 8.933594 166.601212 0 0.482353 1
v -74.1446 8.933596 153.962662 0 0.482353 1
v -106.545563 8.933599 133.603745 0 0.482353 1
v -133.603882 8.933603 106.545395 0 0.482353 1
v -153.962753 8.933608 74.144409 0 0.482353 1
v -166.601257 8.933615 38.025497 0 0.482353 1
v -170.885696 8.93362 -0.000164 0 0.482353 1
v -166.601196 8.933626 -38.025818 0 0.482353 1
v -153.962616 8.933633 -74.144699 0 0.482353 1
v -133.603683 8.933638 -106.545647 0 0.482353 1
v -106.545311 8.933642 -133.603958 0 0.482353 1
v -74.144302 8.933645 -153.962799 0 0.482353 1
v -38.025391 8.933647 -166.601303 0 0.482353 1
v -25.156387 -6.294177 81.911247
v 81.911247 -6.294158 25.156382
v -81.911247 -6.294102 -25.156393
v 25.156387 -6.294083 -81.911247
v 42.799446 -20.913916 12.217346 0 0.019608 0.486275
v 42.799446 0.073542 12.217358
v 42.799446 -20.913906 -12.127141 0 0.019608 0.486275
v 42.799446 0.073551 -12.127131
v 50.799446 -20.913916 12.217346 0 0.019608 0.486275
v 50.799446 0.073542 12.217358
v 50.799446 -20.913906 -12.127141 0 0.019608 0.486275
v 50.799446 0.073551 -12.127131
v -60.59 -20.417629 60.589993 0 0.019608 0.486275
v 60.59 -20.417629 60.589993 0 0.019608 0.486275
v -60.59 -20.417553 -60.590008 0 0.019608 0.486275
v 60.59 -20.417553 -60.590008 0 0.019608 0.486275
v 25.845654 -7.294177 81.696381
v 81.696381 -7.294141 -25.845659
v -81.696381 -7.294118 25.845648
v -25.845654 -7.294083 -81.696381
v -60.59 -8.294168 60.59
v 60.59 -8.294168 60.59
v -60.59 -8.294091 -60.59
v 60.59 -8.294091 -60.59
vt 0.5 1
vt 0.61126 0.987464
vt 0.5 0.5
vt 0.716942 0.950484
vt 0.811745 0.890916
vt 0.890916 0.811745
vt 0.049515 0.283058
vt 0.012536 0.38874
vt 0 0.5
vt 0.012536 0.611261
vt 0.049516 0.716942
vt 0.109085 0.811745
vt 0.188256 0.890916
vt 0.283059 0.950485
vt 0.950484 0.716942
vt 0.987464 0.61126
vt 1 0.5
vt 0.987464 0.38874
vt 0.950484 0.283058
vt 0.890916 0.188255
vt 0.811745 0.109084
vt 0.716942 0.049516
vt 0.61126 0.012536
vt 0.5 0
vt 0.388739 0.012536
vt 0.283058 0.049516
vt 0.188255 0.109084
vt 0.109084 0.188255
vt 0.38874 0.987464
vt 3.036168 -2.036168
vt -2.036168 3.036168
vt -2.036168 -2.036168
vt 3.036168 3.036168
vt -3.488871 1.588198
vt -1.676138 2.686653
vt -2.41256 3.425797
vt -1.506903 1.054194
vt -0.970308 1.972793
vt -0.406904 1.361449
vt -3.496778 -0.549555
vt -2.478062 1.316756
vt -1.507474 -0.014001
vt -0.689776 0.18146
vt -0.706728 0.813853
vt -2.427267 -2.407328
vt -2.482991 -0.275923
vt -1.685616 -1.660675
vt -0.969962 -0.943203
vt -0.568483 -3.480286
vt -0.03761 -1.481833
vt -0.355819 -0.362463
vt 1.577201 -3.479129
vt -0.29977 -2.462052
vt 1.039299 -1.484498
vt 0.207202 -0.670972
vt 2.685757 -1.666213
vt 1.300985 -2.463758
vt 1.971431 -0.950994
vt 0.84928 -0.660673
vt 4.496778 -0.550024
vt 3.431925 -2.405663
vt 3.482151 -0.285345
vt 2.508371 -0.026102
vt 1.398617 -0.334846
vt 3.476267 1.305533
vt 2.50593 1.039717
vt 1.708224 0.217309
vt 3.40308 3.425082
vt 4.485088 1.586266
vt 2.671505 2.677247
vt 1.964643 1.958737
vt 1.695291 0.845068
vt 1.551407 4.47557
vt 1.288267 3.464738
vt 0.787695 1.66197
vt 1.361263 1.376908
vt -0.568824 4.47557
vt -0.298068 3.468844
vt 1.029569 2.48579
vt -0.041562 2.494502
vt 0.138337 1.673338
vt 0 0
vt 1 1
vt 0 1
vt 1 0
vn 0 -0.871609 0.490158
vn -0.109043 -0.871609 0.477859
vn 0 -0.999969 0
vn -0.212653 -0.871609 0.441603
vn -0.305582 -0.871609 0.383221
vn -0.383221 -0.871609 0.305582
vn 0.441603 -0.871609 -0.212653
vn 0.477859 -0.871609 -0.109043
vn 0.490158 -0.871609 0
vn 0.477859 -0.871609 0.109043
vn 0.441603 -0.871609 0.212653
vn 0.383221 -0.871609 0.305582
vn 0.305582 -0.871609 0.383221
vn 0.212653 -0.871609 0.441603
vn -0.441603 -0.871609 0.212653
vn -0.477859 -0.871609 0.109043
vn -0.490158 -0.871609 0
vn -0.477859 -0.871609 -0.109043
vn -0.441603 -0.871609 -0.212653
vn -0.383221 -0.871609 -0.305582
vn -0.305582 -0.871609 -0.383221
vn -0.212653 -0.871609 -0.441603
vn -0.109043 -0.871609 -0.477859
vn 0 -0.871609 -0.490158
vn 0.109043 -0.871609 -0.477859
vn 0.212653 -0.871609 -0.441603
vn 0.305582 -0.871609 -0.383221
vn 0.383221 -0.871609 -0.305582
vn 0.109043 -0.871609 0.477859
vn 0 0.999969 0
vn 0 1 0
vn -0.172491 0.979949 0.099582
vn -0.372234 0.928129 0
vn -0.199194 0.979949 0
vn -0.683981 0.61333 0.394879
vn -0.789788 0.61333 0
vn -0.951048 0.309 0
vn -0.099582 0.979949 0.172491
vn -0.322367 0.928129 0.186102
vn -0.394879 0.61333 0.683981
vn -0.475509 0.309 0.823634
vn -0.823634 0.309 0.475509
vn 0 0.979949 0.199194
vn -0.186102 0.928129 0.322367
vn 0 0.928129 0.372234
vn 0 0.61333 0.789788
vn 0.099582 0.979949 0.172491
vn 0.394879 0.61333 0.683981
vn 0 0.309 0.951048
vn 0.172491 0.979949 0.099582
vn 0.186102 0.928129 0.322367
vn 0.683981 0.61333 0.394879
vn 0.475509 0.309 0.823634
vn 0.372234 0.928129 0
vn 0.322367 0.928129 0.186102
vn 0.789788 0.61333 0
vn 0.823634 0.309 0.475509
vn 0.172491 0.979949 -0.099582
vn 0.199194 0.979949 0
vn 0.322367 0.928129 -0.186102
vn 0.683981 0.61333 -0.394879
vn 0.951048 0.309 0
vn 0.186102 0.928129 -0.322367
vn 0.394879 0.61333 -0.683981
vn 0.823634 0.309 -0.475509
vn 0 0.979949 -0.199194
vn 0.099582 0.979949 -0.172491
vn 0 0.928129 -0.372234
vn 0 0.61333 -0.789788
vn 0.475509 0.309 -0.823634
vn -0.099582 0.979949 -0.172491
vn -0.186102 0.928129 -0.322367
vn -0.475509 0.309 -0.823634
vn 0 0.309 -0.951048
vn -0.172491 0.979949 -0.099582
vn -0.322367 0.928129 -0.186102
vn -0.394879 0.61333 -0.683981
vn -0.683981 0.61333 -0.394879
vn -0.823634 0.309 -0.475509
vn -0.707083 0 0.707083
vn -0.577349 0.577349 -0.577349
vn -0.707083 0 -0.707083
vn 0.707083 0 -0.707083
vn 0.577349 0.577349 0.577349
vn 0.707083 0 0.707083
vn 0.577349 0.577349 -0.577349
vn -0.577349 0.577349 0.577349
usemtl CA_PillarWater02_01_CA_Wall02_03.png
f 79/30/30 80/31/30 78/32/31
f 79/30/30 81/33/31 80/31/30
usemtl CA_PillarWater02_01_CA_Wall02_02.png
f 49/1/1 50/2/2 55/3/3
f 50/2/2 51/4/4 55/3/3
f 51/4/4 52/5/5 55/3/3
f 52/5/5 53/6/6 55/3/3
f 69/7/7 70/8/8 55/3/3
f 70/8/8 71/9/9 55/3/3
f 71/9/9 72/10/10 55/3/3
f 72/10/10 73/11/11 55/3/3
f 73/11/11 74/12/12 55/3/3
f 74/12/12 75/13/13 55/3/3
f 75/13/13 76/14/14 55/3/3
f 53/6/6 54/15/15 55/3/3
f 54/15/15 56/16/16 55/3/3
f 56/16/16 57/17/17 55/3/3
f 57/17/17 58/18/18 55/3/3
f 58/18/18 59/19/19 55/3/3
f 59/19/19 60/20/20 55/3/3
f 60/20/20 61/21/21 55/3/3
f 61/21/21 62/22/22 55/3/3
f 62/22/22 63/23/23 55/3/3
f 63/23/23 64/24/24 55/3/3
f 64/24/24 65/25/25 55/3/3
f 65/25/25 66/26/26 55/3/3
f 66/26/26 67/27/27 55/3/3
f 67/27/27 68/28/28 55/3/3
f 68/28/28 69/7/7 55/3/3
f 76/14/14 77/29/29 55/3/3
f 77/29/29 49/1/1 55/3/3
usemtl CA_PillarWater02_01
f 5/34/32 2/35/33 1/36/34
f 2/35/33 7/37/35 3/38/36
f 7/37/35 4/39/37 3/38/36
f 9/40/38 6/41/39 5/34/32
f 6/41/39 11/42/40 7/37/35
f 7/37/35 12/43/41 8/44/42
f 13/45/43 10/46/44 9/40/38
f 14/47/45 11/42/40 10/46/44
f 15/48/46 12/43/41 11/42/40
f 17/49/47 14/47/45 13/45/43
f 14/47/45 19/50/48 15/48/46
f 19/50/48 16/51/49 15/48/46
f 21/52/50 18/53/51 17/49/47
f 18/53/51 23/54/52 19/50/48
f 23/54/52 20/55/53 19/50/48
f 21/52/50 26/56/54 22/57/55
f 22/57/55 27/58/56 23/54/52
f 27/58/56 24/59/57 23/54/52
f 29/60/58 26/56/54 25/61/59
f 30/62/60 27/58/56 26/56/54
f 31/63/61 28/64/62 27/58/56
f 29/60/58 34/65/63 30/62/60
f 34/65/63 31/63/61 30/62/60
f 35/66/64 32/67/65 31/63/61
f 37/68/66 34/65/63 33/69/67
f 38/70/68 35/66/64 34/65/63
f 39/71/69 36/72/70 35/66/64
f 41/73/71 38/70/68 37/68/66
f 42/74/72 39/71/69 38/70/68
f 39/71/69 44/75/73 40/76/74
f 45/77/75 42/74/72 41/73/71
f 46/78/76 43/79/77 42/74/72
f 47/80/78 44/75/73 43/79/77
f 1/36/34 46/78/76 45/77/75
f 46/78/76 3/38/36 47/80/78
f 3/38/36 48/81/79 47/80/78
f 5/34/32 6/41/39 2/35/33
f 2/35/33 6/41/39 7/37/35
f 7/37/35 8/44/42 4/39/37
f 9/40/38 10/46/44 6/41/39
f 6/41/39 10/46/44 11/42/40
f 7/37/35 11/42/40 12/43/41
f 13/45/43 14/47/45 10/46/44
f 14/47/45 15/48/46 11/42/40
f 15/48/46 16/51/49 12/43/41
f 17/49/47 18/53/51 14/47/45
f 14/47/45 18/53/51 19/50/48
f 19/50/48 20/55/53 16/51/49
f 21/52/50 22/57/55 18/53/51
f 18/53/51 22/57/55 23/54/52
f 23/54/52 24/59/57 20/55/53
f 21/52/50 25/61/59 26/56/54
f 22/57/55 26/56/54 27/58/56
f 27/58/56 28/64/62 24/59/57
f 29/60/58 30/62/60 26/56/54
f 30/62/60 31/63/61 27/58/56
f 31/63/61 32/67/65 28/64/62
f 29/60/58 33/69/67 34/65/63
f 34/65/63 35/66/64 31/63/61
f 35/66/64 36/72/70 32/67/65
f 37/68/66 38/70/68 34/65/63
f 38/70/68 39/71/69 35/66/64
f 39/71/69 40/76/74 36/72/70
f 41/73/71 42/74/72 38/70/68
f 42/74/72 43/79/77 39/71/69
f 39/71/69 43/79/77 44/75/73
f 45/77/75 46/78/76 42/74/72
f 46/78/76 47/80/78 43/79/77
f 47/80/78 48/81/79 44/75/73
f 1/36/34 2/35/33 46/78/76
f 46/78/76 2/35/33 3/38/36
f 3/38/36 4/39/37 48/81/79
f 82/82/80 85/83/81 84/84/82
f 85/85/81 88/84/83 84/82/82
f 87/85/84 82/84/80 86/82/85
f 85/85/81 87/84/84 89/82/86
f 82/82/80 83/85/87 85/83/81
f 85/85/81 89/83/86 88/84/83
f 87/85/84 83/83/87 82/84/80
f 85/85/81 83/83/87 87/84/84
f 87/85/84 88/84/83 89/83/86
f 87/85/84 86/82/85 88/84/83
f 91/30/31 92/31/31 90/32/31
f 91/30/31 93/33/31 92/31/31
usemtl CA_PillarWater02_01_CA_Wall02_01.png
f 99/30/31 100/31/31 98/32/31
f 99/30/31 101/33/31 100/31/31
usemtl CA_PillarWater02_01_CA_Wall02_02.png_CA_Wall02_02.png
f 95/30/31 96/31/30 94/32/31
f 95/30/31 97/33/31 96/31/30
