mtllib RedBarrel.mtl
v 0 0 -0.5
v 0 1.5 -0.5
v 0.25 0 -0.433013
v 0.25 1.5 -0.433013
v 0.433013 0 -0.25
v 0.433013 1.5 -0.25
v 0.5 0 0
v 0.5 1.5 0
v 0.433013 0 0.25
v 0.433013 1.5 0.25
v 0.25 0 0.433013
v 0.25 1.5 0.433013
v 0 0 0.5
v 0 1.5 0.5
v -0.25 0 0.433013
v -0.25 1.5 0.433013
v -0.433013 0 0.25
v -0.433013 1.5 0.25
v -0.5 0 0
v -0.5 1.5 0
v -0.433013 0 -0.25
v -0.433013 1.5 -0.25
v -0.25 0 -0.433013
v -0.25 1.5 -0.433013
vt 0.5 0.537654
vt 0.416677 0.007884
vt 0.499999 0.007883
vt 0.416678 0.537654
vt 0.333356 0.007884
vt 0.333356 0.537654
vt 0.250034 0.007884
vt 0.250035 0.537654
vt 0.166713 0.007884
vt 0.166713 0.537654
vt 0.083391 0.007884
vt 0.083391 0.537654
vt 0.000069 0.007884
vt 0.99993 0.537653
vt 0.916607 0.007882
vt 0.999929 0.007882
vt 0.916609 0.537653
vt 0.833285 0.007883
vt 0.833287 0.537653
vt 0.749964 0.007883
vt 0.749965 0.537654
vt 0.666642 0.007883
vt 0.36094 0.759766
vt 0.435353 0.888652
vt 0.658591 0.759766
vt 0.666643 0.537654
vt 0.583321 0.007883
vt 0.583322 0.537654
vt 0.982505 0.712891
vt 0.871052 0.648543
vt 0.871052 0.777238
vt 0.000069 0.537654
vt 0.509766 0.908591
vt 0.584178 0.888652
vt 0.638652 0.834178
vt 0.638652 0.685353
vt 0.584178 0.630879
vt 0.509766 0.61094
vt 0.435353 0.630879
vt 0.380879 0.685353
vt 0.380879 0.834178
vt 0.908203 0.787193
vt 0.945354 0.777238
vt 0.972551 0.750042
vt 0.972551 0.67574
vt 0.945354 0.648543
vt 0.908203 0.638588
vt 0.843856 0.67574
vt 0.833901 0.712891
vt 0.843856 0.750042
vn 0 0 -1
vn 0.499985 0 -0.866024
vn 0.866024 0 -0.499985
vn 1 0 0
vn 0.866024 0 0.499985
vn 0.499985 0 0.866024
vn 0 0 1
vn -0.499985 0 0.866024
vn -0.866024 0 0.499985
vn -1 0 0
vn -0.866024 0 -0.499985
vn 0 -0.999969 0
vn 0 -1 0
vn -0.499985 0 -0.866024
vn 0 1 0
vn 0 0.999969 0
usemtl None
f 2/1/1 3/2/2 1/3/1
f 4/4/2 5/5/3 3/2/2
f 6/6/3 7/7/4 5/5/3
f 8/8/4 9/9/5 7/7/4
f 10/10/5 11/11/6 9/9/5
f 12/12/6 13/13/7 11/11/6
f 14/14/7 15/15/8 13/16/7
f 16/17/8 17/18/9 15/15/8
f 18/19/9 19/20/10 17/18/9
f 20/21/10 21/22/11 19/20/10
f 19/23/12 23/24/13 7/25/13
f 22/26/11 23/27/14 21/22/11
f 24/28/14 1/3/1 23/27/14
f 22/29/15 14/30/15 6/31/15
f 2/1/1 4/4/2 3/2/2
f 4/4/2 6/6/3 5/5/3
f 6/6/3 8/8/4 7/7/4
f 8/8/4 10/10/5 9/9/5
f 10/10/5 12/12/6 11/11/6
f 12/12/6 14/32/7 13/13/7
f 14/14/7 16/17/8 15/15/8
f 16/17/8 18/19/9 17/18/9
f 18/19/9 20/21/10 19/20/10
f 20/21/10 22/26/11 21/22/11
f 23/24/13 1/33/13 3/34/13
f 3/34/13 5/35/13 7/25/13
f 7/25/13 9/36/13 11/37/13
f 11/37/13 13/38/13 15/39/13
f 15/39/13 17/40/13 19/23/12
f 19/23/12 21/41/13 23/24/13
f 23/24/13 3/34/13 7/25/13
f 7/25/13 11/37/13 15/39/13
f 15/39/13 19/23/12 7/25/13
f 22/26/11 24/28/14 23/27/14
f 24/28/14 2/1/1 1/3/1
f 6/31/15 4/42/15 2/43/16
f 2/43/16 24/44/16 6/31/15
f 24/44/16 22/29/15 6/31/15
f 22/29/15 20/45/15 18/46/15
f 18/46/15 16/47/15 14/30/15
f 14/30/15 12/48/15 10/49/16
f 10/49/16 8/50/15 6/31/15
f 22/29/15 18/46/15 14/30/15
f 14/30/15 10/49/16 6/31/15
