mtllib Map7.mtl
v -20.000000 0.000010 -20.000000 1.000000 1.000000 1.000000
v -212.132034 -5.000000 212.132034 1.000000 1.000000 1.000000
v 20.000000 -21.000011 19.999996 0.000000 0.560784 1.000000
v -300.000000 -5.000000 0.000013 1.000000 1.000000 1.000000
v -20.000000 -0.000010 20.000000 1.000000 1.000000 1.000000
v -212.132034 -5.000000 -212.132034 1.000000 1.000000 1.000000
v -20.000000 -21.000011 19.999996 0.000000 0.560784 1.000000
v 0.000000 -5.000000 -300.000000 1.000000 1.000000 1.000000
v 0.000000 -50.530003 -499.999969 0.000000 0.560784 1.000000
v 353.553375 -50.530003 -353.553345 0.000000 0.560784 1.000000
v 500.000000 -50.529999 0.000022 0.000000 0.560784 1.000000
v 353.553375 -50.529995 353.553406 0.000000 0.560784 1.000000
v -0.000044 -50.529995 500.000031 0.000000 0.560784 1.000000
v 0.000000 149.470001 0.000000 1.000000 1.000000 1.000000
v -353.553436 -50.529995 353.553345 0.000000 0.560784 1.000000
v 0.000000 149.470001 0.000000 1.000000 1.000000 1.000000
v -500.000000 -50.529999 -0.000006 0.000000 0.560784 1.000000
v 0.000000 149.470001 0.000000 1.000000 1.000000 1.000000
v -353.553436 -50.530003 -353.553314 0.000000 0.560784 1.000000
v 0.000000 149.470001 0.000000 1.000000 1.000000 1.000000
v 0.000000 0.000000 -300.000000 1.000000 1.000000 1.000000
v -212.132034 0.000000 -212.132034 1.000000 1.000000 1.000000
v -300.000000 0.000000 0.000013 1.000000 1.000000 1.000000
v -212.132034 0.000000 212.132034 1.000000 1.000000 1.000000
v 0.000026 0.000000 300.000000 1.000000 1.000000 1.000000
v 212.132065 0.000000 212.131989 1.000000 1.000000 1.000000
v 300.000000 0.000000 -0.000004 1.000000 1.000000 1.000000
v 212.132065 0.000000 -212.132019 1.000000 1.000000 1.000000
v -195.142502 -21.000000 -195.142502 0.000000 0.560784 1.000000
v 0.000001 -21.000000 -275.973175 0.000000 0.560784 1.000000
v -275.973175 -21.000000 0.000011 0.000000 0.560784 1.000000
v -195.142502 -21.000000 195.142502 0.000000 0.560784 1.000000
v 0.000025 -21.000000 275.973175 0.000000 0.560784 1.000000
v 195.142532 -21.000000 195.142456 0.000000 0.560784 1.000000
v 275.973175 -21.000000 -0.000004 0.000000 0.560784 1.000000
v 195.142532 -21.000000 -195.142487 0.000000 0.560784 1.000000
v -20.000000 -21.000011 19.999996 0.000000 0.560784 1.000000
v -20.000000 -0.000010 20.000000 1.000000 1.000000 1.000000
v -20.000000 -20.999989 -20.000006 0.000000 0.560784 1.000000
v -20.000000 0.000010 -20.000000 1.000000 1.000000 1.000000
v -20.000000 -20.999989 -20.000006 0.000000 0.560784 1.000000
v -20.000000 0.000010 -20.000000 1.000000 1.000000 1.000000
v 20.000000 -20.999989 -20.000006 0.000000 0.560784 1.000000
v 20.000000 0.000010 -20.000000 1.000000 1.000000 1.000000
v 20.000000 -0.000010 20.000000 1.000000 1.000000 1.000000
v 20.000000 -20.999989 -20.000006 0.000000 0.560784 1.000000
v 20.000000 0.000010 -20.000000 1.000000 1.000000 1.000000
v -20.000000 -0.000010 20.000000 1.000000 1.000000 1.000000
v 20.000000 -21.000011 19.999996 0.000000 0.560784 1.000000
v 20.000000 -0.000010 20.000000 1.000000 1.000000 1.000000
v 20.000000 -0.000010 20.000000 1.000000 1.000000 1.000000
v 20.000000 0.000010 -20.000000 1.000000 1.000000 1.000000
v 0.000026 -5.000000 300.000000 1.000000 1.000000 1.000000
v 212.132065 -5.000000 212.131989 1.000000 1.000000 1.000000
v 300.000000 -5.000000 -0.000004 1.000000 1.000000 1.000000
v 212.132065 -5.000000 -212.132019 1.000000 1.000000 1.000000
vt 0.507229 -7.492286
vt 16.476387 -7.492290
vt 16.476387 0.492291
vt 16.476387 8.492287
vt 0.507229 8.492289
vt 0.507229 0.507712
vt 16.476387 16.492285
vt 0.507229 16.492289
vt 0.507229 8.507710
vt -15.477351 0.476870
vt -15.477351 -15.492289
vt 0.491808 -15.492289
vt 0.507229 0.492291
vt 16.476387 0.507712
vt 16.476387 8.507710
vt 0.491808 0.476870
vt 3.437788 7.474113
vt -6.476902 3.331653
vt 7.462845 -2.337184
vt 3.797815 8.330384
vt 7.500273 3.424431
vt 8.364095 3.764107
vt 8.314462 -2.710918
vt 3.349488 -6.412030
vt 3.692255 -7.277526
vt -2.802162 -7.280210
vt -6.533387 -2.400361
vt -7.396062 -2.741375
vt -7.324230 3.710384
vt -2.328536 7.368465
vt -2.673607 8.227191
vt -2.440048 -6.425813
vt 0.507229 -15.492287
vt 16.476387 -7.507710
vt 0.507229 -7.507710
vt 16.476387 -15.492289
vt 0.500000 1.000000
vt 0.853553 0.853553
vt 0.500000 0.500000
vt 1.000000 0.500000
vt 0.853553 0.146447
vt 0.500000 -0.000000
vt 0.146447 0.146447
vt 0.000000 0.500000
vt 0.146447 0.853553
vn 0.000000 0.000000 -1.000000
vn 1.000000 0.000000 0.000000
vn 0.999969 0.000000 0.000000
vn 0.000000 0.000000 1.000000
vn 0.000000 1.000000 0.000000
vn 0.000000 0.905942 0.423322
vn 0.423322 0.905942 0.000000
vn -0.423322 0.905942 0.000000
vn 0.000000 0.752922 0.658071
vn -0.299326 0.905942 0.299326
vn -0.465316 0.752922 0.465316
vn -0.658071 0.752922 0.000000
vn -0.299326 0.905942 -0.299326
vn -0.465316 0.752922 -0.465316
vn 0.000000 0.752922 -0.658071
vn 0.299326 0.905942 -0.299326
vn 0.465316 0.752922 -0.465316
vn 0.658071 0.752922 0.000000
vn 0.299326 0.905942 0.299326
vn 0.465316 0.752922 0.465316
vn 0.000000 0.905942 -0.423322
vn -1.000000 0.000000 0.000000
vn -0.999969 0.000000 0.000000
vn 0.000000 -0.928465 0.371380
vn -0.262612 -0.928465 0.262612
vn -0.133824 -0.692923 0.708457
vn -0.371380 -0.928465 0.000000
vn -0.262612 -0.928465 -0.262612
vn 0.000000 -0.928465 -0.371380
vn 0.037385 -0.225745 0.973449
vn 0.262612 -0.928495 -0.262459
vn 0.085604 -0.213996 0.973052
vn 0.371380 -0.928465 0.000000
vn 0.080050 -0.200171 0.976470
vn 0.262581 -0.928404 0.262795
usemtl None
f 42/1/1 44/2/1 43/3/1
f 47/4/2 45/5/2 3/6/3
f 50/7/4 48/8/4 7/9/4
f 1/10/5 5/11/5 51/12/5
f 42/1/1 43/3/1 41/13/1
f 47/4/2 3/6/3 46/14/2
f 50/7/4 7/9/4 49/15/4
f 1/10/5 51/12/5 52/16/5
f 30/17/6 31/18/7 35/19/8
f 21/20/9 36/21/10 28/22/11
f 27/23/12 34/24/13 26/25/14
f 25/26/15 32/27/16 24/28/17
f 23/29/18 29/30/19 22/31/20
f 28/22/11 35/19/8 27/23/12
f 26/25/14 33/32/21 25/26/15
f 24/28/17 31/18/7 23/29/18
f 22/31/20 30/17/6 21/20/9
f 38/33/22 39/34/23 37/35/23
f 38/33/22 40/36/22 39/34/23
f 30/17/6 29/30/19 31/18/7
f 31/18/7 32/27/16 34/24/13
f 32/27/16 33/32/21 34/24/13
f 34/24/13 35/19/8 31/18/7
f 35/19/8 36/21/10 30/17/6
f 21/20/9 30/17/6 36/21/10
f 27/23/12 35/19/8 34/24/13
f 25/26/15 33/32/21 32/27/16
f 23/29/18 31/18/7 29/30/19
f 28/22/11 36/21/10 35/19/8
f 26/25/14 34/24/13 33/32/21
f 24/28/17 32/27/16 31/18/7
f 22/31/20 29/30/19 30/17/6
usemtl None_0.png
f 4/29/5 2/28/5 53/26/5
f 8/20/5 6/31/5 4/29/5
f 53/26/5 55/23/5 8/20/5
f 53/26/5 54/25/5 55/23/5
f 55/23/5 56/22/5 8/20/5
f 8/20/5 4/29/5 53/26/5
usemtl None_White.png
f 9/37/24 10/38/25 14/39/26
f 10/38/25 11/40/27 14/39/26
f 11/40/27 12/41/28 14/39/26
f 12/41/28 13/42/29 14/39/26
f 13/42/29 16/39/30 14/39/26
f 15/43/31 18/39/32 16/39/30
f 17/44/33 20/39/34 18/39/32
f 19/45/35 14/39/26 20/39/34
f 13/42/29 15/43/31 16/39/30
f 15/43/31 17/44/33 18/39/32
f 17/44/33 19/45/35 20/39/34
f 19/45/35 9/37/24 14/39/26
