mtllib Map2.mtl
v -8.000000 -0.000001 8.000000 1.000000 1.000000 1.000000
v -8.000000 0.000001 -8.000000 1.000000 1.000000 1.000000
v 8.000000 -226.000000 7.999963 0.000000 0.000000 0.000000
v 8.000000 -0.000001 8.000000 1.000000 1.000000 1.000000
v 8.000000 -226.000000 -8.000037 0.000000 0.000000 0.000000
v 8.000000 0.000001 -8.000000 1.000000 1.000000 1.000000
v -8.000000 5.999999 8.000001 1.000000 1.000000 1.000000
v -8.000000 6.000001 -7.999999 1.000000 1.000000 1.000000
v 8.000000 5.999999 8.000001 1.000000 1.000000 1.000000
v 8.000000 6.000001 -7.999999 1.000000 1.000000 1.000000
v 41.799999 -226.000000 7.999963 0.000000 0.000000 0.000000
v 41.799999 -0.000001 8.000000 1.000000 1.000000 1.000000
v 41.799999 -226.000000 -8.000037 0.000000 0.000000 0.000000
v 41.799999 0.000001 -8.000000 1.000000 1.000000 1.000000
v 41.799999 5.999999 8.000001 1.000000 1.000000 1.000000
v 41.799999 6.000001 -7.999999 1.000000 1.000000 1.000000
v 51.799999 -0.000001 8.000000 1.000000 1.000000 1.000000
v 51.799999 0.000001 -8.000000 1.000000 1.000000 1.000000
v 51.799999 5.999999 8.000001 1.000000 1.000000 1.000000
v 51.799999 6.000001 -7.999999 1.000000 1.000000 1.000000
vt 6.018501 -5.018501
vt -5.018501 6.018501
vt -5.018501 -5.018501
vt 6.018501 6.018501
vt 0.625000 0.250000
vt 0.625000 0.750000
vt 0.625000 1.000000
vt 0.625000 0.500000
vt 0.046157 0.010110
vt 1.984356 0.741085
vt 1.984357 0.010110
vt 12.159907 0.010116
vt 14.098106 0.741092
vt 14.098106 0.010117
vt 16.036310 0.741093
vt 16.036310 0.010119
vt 4.891658 0.010111
vt 9.252607 0.741088
vt 12.159907 0.741090
vt 4.891657 0.741086
vt 6.103032 0.010112
vt 8.041232 0.741087
vt 6.103032 0.741086
vt 9.252607 0.010113
vt 0.046157 0.741084
vt 8.041232 0.010113
vt 0.375000 0.750000
vt 0.375000 0.500000
vn 0.000000 1.000000 0.000000
vn 0.000000 -1.000000 -0.000000
vn 0.000000 0.000000 -1.000000
vn 0.000000 -0.000000 1.000000
vn 1.000000 -0.000000 0.000000
vn -1.000000 0.000000 -0.000000
usemtl None_grass.png
f 2/1/1 4/2/1 6/3/1
f 18/1/1 12/2/1 17/3/1
f 2/1/1 1/4/1 4/2/1
f 18/1/1 14/4/1 12/2/1
usemtl None_sky.png
f 8/5/2 9/6/2 7/7/2
f 10/8/2 15/6/2 9/6/2
f 16/8/2 19/6/2 15/6/2
f 8/5/2 10/8/2 9/6/2
f 10/8/2 16/8/2 15/6/2
f 16/8/2 20/8/2 19/6/2
usemtl None_bushsky.png
f 1/9/3 9/10/3 4/11/3
f 6/12/4 8/13/4 2/14/4
f 2/14/5 7/15/5 1/16/5
f 9/10/3 12/17/3 4/11/3
f 6/12/4 16/18/4 10/19/4
f 15/20/3 17/21/3 12/17/3
f 20/22/6 17/21/6 19/23/6
f 14/24/4 20/22/4 16/18/4
f 1/9/3 7/25/3 9/10/3
f 6/12/4 10/19/4 8/13/4
f 2/14/5 8/13/5 7/15/5
f 9/10/3 15/20/3 12/17/3
f 6/12/4 14/24/4 16/18/4
f 15/20/3 19/23/3 17/21/3
f 20/22/6 18/26/6 17/21/6
f 14/24/4 18/26/4 20/22/4
usemtl None
f 6/8/5 3/27/5 5/28/5
f 5/28/4 14/8/4 6/8/4
f 12/6/3 3/27/3 4/6/3
f 11/27/1 5/28/1 3/27/1
f 11/27/6 14/8/6 13/28/6
f 6/8/5 4/6/5 3/27/5
f 5/28/4 13/28/4 14/8/4
f 12/6/3 11/27/3 3/27/3
f 11/27/1 13/28/1 5/28/1
f 11/27/6 12/6/6 14/8/6
