mtllib WinZone.mtl
v 1 1 -1
v 1 1 1
v -1 1 -1
v -1 1 1
v 1 -1 -1
v -1 -1 -1
v 1 -1 1
v -1 -1 1
v 0.999 0.999 -0.999
v 0.999 0.999 0.999
v -0.999 0.999 -0.999
v -0.999 0.999 0.999
v 0.999 -0.999 -0.999
v -0.999 -0.999 -0.999
v 0.999 -0.999 0.999
v -0.999 -0.999 0.999
vt 0.0001 0.0001
vt 0.9999 0.9999
vt 0.0001 0.9999
vt 0.9999 0.0001
vn -1 0 0
vn 0 -1 0
vn 1 0 0
vn 0 0 -1
vn 0 1 0
vn 0 0 1
usemtl Tile
f 4/1/1 6/2/1 8/3/1
f 4/1/1 3/4/1 6/2/1
f 5/4/2 8/3/2 6/1/2
f 1/4/3 7/3/3 5/1/3
f 3/4/4 5/3/4 6/1/4
f 3/2/5 2/1/5 1/4/5
f 2/4/6 8/3/6 7/1/6
f 2/4/6 4/2/6 8/3/6
f 3/2/5 4/3/5 2/1/5
f 3/4/4 1/2/4 5/3/4
f 1/4/3 2/2/3 7/3/3
f 5/4/2 7/2/2 8/3/2
f 12/1/3 16/3/3 14/2/3
f 12/1/3 14/2/3 11/4/3
f 13/4/5 14/1/5 16/3/5
f 9/4/1 13/1/1 15/3/1
f 11/4/6 14/1/6 13/3/6
f 11/2/2 9/4/2 10/1/2
f 10/4/4 15/1/4 16/3/4
f 10/4/4 16/3/4 12/2/4
f 11/2/2 10/1/2 12/3/2
f 11/4/6 13/3/6 9/2/6
f 9/4/1 15/3/1 10/2/1
f 13/4/5 16/3/5 15/2/5
