mtllib LightTest.mtl
v -5.000000 -0.000004 5.000000 1.000000 1.000000 1.000000
v -5.000000 9.999996 5.000004 1.000000 1.000000 1.000000
v -5.000000 0.000004 -5.000000 1.000000 1.000000 1.000000
v -5.000000 10.000004 -4.999996 1.000000 1.000000 1.000000
v 5.000000 -0.000004 5.000000 1.000000 1.000000 1.000000
v 5.000000 9.999996 5.000004 1.000000 1.000000 1.000000
v 5.000000 0.000004 -5.000000 1.000000 1.000000 1.000000
v 5.000000 10.000004 -4.999996 1.000000 1.000000 1.000000
v -1.690730 10.000000 -1.034836 1.000000 1.000000 1.000000
v -1.399224 10.000000 2.025969 1.000000 1.000000 1.000000
v 2.448643 10.000000 1.501259 1.000000 1.000000 1.000000
v 1.632430 10.000000 -2.084254 1.000000 1.000000 1.000000
v -4.210630 -0.000004 5.000000 1.000000 1.000000 1.000000
v -1.518256 -0.000004 5.000000 1.000000 1.000000 1.000000
v -4.028440 2.135554 5.000000 1.000000 1.000000 1.000000
v -1.943368 2.439205 5.000000 1.000000 1.000000 1.000000
v 5.000000 -0.000000 2.631643 1.000000 1.000000 1.000000
v 5.000000 0.000000 -3.056756 1.000000 1.000000 1.000000
v 5.000000 2.702373 1.538500 1.000000 1.000000 1.000000
v 5.000000 2.742859 -1.882638 1.000000 1.000000 1.000000
v -5.844930 2.100528 -2.274881 1.000000 1.000000 1.000000
v -5.844930 3.224113 -2.274879 1.000000 1.000000 1.000000
v -5.844930 2.100531 -5.655237 1.000000 1.000000 1.000000
v -5.844930 3.224117 -5.655237 1.000000 1.000000 1.000000
v -2.464574 2.100528 -2.274881 1.000000 1.000000 1.000000
v -2.464574 2.605567 -2.274879 1.000000 1.000000 1.000000
v -2.464574 2.100531 -5.655237 1.000000 1.000000 1.000000
v -2.464574 3.224117 -5.655237 1.000000 1.000000 1.000000
v 12.471720 -0.000000 2.631643 1.000000 1.000000 1.000000
v 12.471720 0.000000 -3.056756 1.000000 1.000000 1.000000
v 12.471720 2.702373 1.538500 1.000000 1.000000 1.000000
v 12.471720 2.742859 -1.882638 1.000000 1.000000 1.000000
v -4.210630 -0.000012 16.569187 1.000000 1.000000 1.000000
v -1.518256 -0.000012 16.569187 1.000000 1.000000 1.000000
v -4.028440 2.135546 16.569187 1.000000 1.000000 1.000000
v -1.943368 2.439197 16.569187 1.000000 1.000000 1.000000
v -2.592638 11.083407 2.693027 1.000000 1.000000 1.000000
v 2.743764 11.083407 2.693027 1.000000 1.000000 1.000000
v -2.592638 11.083407 -2.643374 1.000000 1.000000 1.000000
v 2.743764 11.083407 -2.643374 1.000000 1.000000 1.000000
v -1.690730 10.971230 -1.034836 1.000000 1.000000 1.000000
v -1.399224 10.971230 2.025968 1.000000 1.000000 1.000000
v 2.448643 10.971230 1.501259 1.000000 1.000000 1.000000
v 1.632430 10.971230 -2.084254 1.000000 1.000000 1.000000
v -6.008061 10.971234 -3.566806 1.000000 1.000000 1.000000
v -5.067331 10.971226 6.310839 1.000000 1.000000 1.000000
v 7.350272 10.971226 4.617527 1.000000 1.000000 1.000000
v 4.716239 10.971234 -6.953423 1.000000 1.000000 1.000000
v 1.008958 -0.000000 0.508877 1.000000 1.000000 1.000000
v 1.037901 0.000000 -1.276752 1.000000 1.000000 1.000000
v -0.904532 0.000000 -1.487426 1.000000 1.000000 1.000000
v -1.533706 -0.000000 0.794162 1.000000 1.000000 1.000000
v 0.055619 0.645762 -0.485721 1.000000 1.000000 1.000000
vt 2.606825 4.469552
vt 1.361688 4.469552
vt 1.361688 3.224415
vt 2.606825 3.224415
vt -3.750357 -4.166575
vt -1.417068 -1.833291
vt -3.750355 -1.833288
vt -3.750356 2.833288
vt -1.417065 5.166578
vt -3.750356 5.166578
vt -1.417066 2.833288
vt -3.110368 2.105917
vt -3.119814 1.307668
vt -3.181220 -1.120089
vt -3.252070 -1.606597
vt 0.334064 -2.380063
vt 0.334063 -3.709491
vt 1.857436 -1.826557
vt 3.694976 0.886204
vt 2.909225 1.566530
vt 1.361688 0.886204
vt 1.361688 3.219493
vt 2.133837 1.811390
vt 2.201853 2.525564
vt 4.252451 -4.166577
vt 4.370292 -3.377844
vt 4.252451 -3.377844
vt 4.252450 -2.589108
vt 4.650521 3.224415
vt 3.861786 4.013150
vt 3.861786 3.224415
vt 4.501730 2.231382
vt 3.699900 3.020117
vt 3.713103 2.218394
vt 2.678073 -1.462228
vt 4.421443 -0.766070
vt 2.678073 -0.766070
vt 4.421443 0.032237
vt 2.678073 0.032237
vt 4.421443 0.712413
vt 2.678073 0.712413
vt 4.247528 -4.166578
vt 3.669810 -1.467151
vt 3.669810 -4.166578
vt 3.178171 -1.467151
vt 3.178171 -4.166578
vt 2.678073 -1.467151
vt 2.678073 -4.166577
vt 4.501731 3.020117
vt -1.412142 -2.380063
vt 2.486533 0.881281
vt 2.487544 -1.826321
vt -1.369632 3.874784
vt -0.783934 4.373072
vt -1.412142 4.373072
vt 4.339889 2.213472
vt 3.699900 1.160159
vt 4.339889 0.886204
vt -1.417070 -4.166578
vt -3.750357 2.379873
vt -3.750357 0.500000
vt -1.417067 0.499998
vt -3.750356 1.052606
vt -3.750358 -1.020898
vt -3.750355 -1.649106
vt 0.333587 -4.164125
vt 2.673151 -4.166578
vt 2.672282 -1.826253
vt 0.334063 -1.826557
vt 1.270161 -2.871273
vt 1.860252 -2.807791
vt 3.694977 3.219493
vt 3.099671 2.403133
vt 4.514615 -4.166578
vt 4.514615 -2.589107
vt 4.650521 4.013150
vt 4.421443 -1.462228
vt 4.247528 -1.467151
vt -1.412142 -3.709491
vt 1.856422 0.881046
vt -0.883125 3.803934
vt 3.709347 1.958410
vt -0.490699 0.168980
vt -1.456375 -0.100149
vt -0.490699 -0.100148
vt 1.437407 0.168980
vt 2.456375 -0.100149
vt 2.456375 0.168980
vt 0.361291 -0.100148
vt 1.437407 -0.100149
vt 0.361291 0.168981
vt 0.393930 2.845242
vt -1.412142 3.799011
vt -0.464076 2.845242
vt -1.197074 1.183748
vt -0.397433 2.034845
vt 1.098894 0.886204
vt 1.356765 3.799011
vt 0.314023 1.942645
vt -1.456375 0.168980
vt 1.262424 -3.296839
vt 1.719836 -3.347290
vt 1.501687 -3.101387
vn 0.000000 -1.000000 0.000000
vn 1.000000 -0.000000 0.000000
vn 0.000000 -0.000000 1.000000
vn -1.000000 0.000000 0.000000
vn -0.000000 0.000000 -1.000000
vn -0.000000 1.000000 0.000000
vn 0.000000 -1.000000 -0.000001
vn 0.000001 -1.000000 -0.000000
vn 0.000000 -0.000004 1.000000
vn 0.000000 0.983667 0.179995
vn 0.000000 -0.393525 0.919314
vn 0.000000 -0.999930 -0.011833
vn 0.000000 -0.374994 -0.927027
vn -0.985150 -0.171695 -0.000000
vn 0.144111 -0.989562 -0.000001
vn 0.996381 -0.085004 -0.000000
vn 0.179994 0.983668 0.000001
vn -0.000000 1.000000 0.000001
vn 0.000000 0.000001 -1.000000
vn -0.000000 1.000000 0.000002
vn -0.000000 -0.000002 1.000000
vn 0.301131 -0.000000 0.953583
vn -0.975055 0.000000 0.221963
vn -0.135113 0.000000 -0.990830
vn 0.995495 -0.000000 -0.094809
vn -0.000001 1.000000 0.000000
vn -0.135113 -0.000001 -0.990830
vn 0.000001 1.000000 -0.000000
vn -0.459229 0.879245 -0.126638
vn 0.554354 0.832232 0.008986
vn 0.063215 0.810120 -0.582846
vn 0.056651 0.861306 0.504918
vn 0.000001 1.000000 0.000002
usemtl None_sun.png
f 38/1/1 37/2/1 39/3/1
f 38/1/1 39/3/1 40/4/1
usemtl None
f 3/5/2 2/6/2 1/7/2
f 7/8/3 4/9/3 3/10/3
f 8/11/4 20/12/4 19/13/4
f 16/14/5 15/15/5 2/6/5
f 17/16/6 18/17/6 14/18/6
f 8/19/7 12/20/7 4/21/7
f 2/22/8 9/23/8 10/24/8
f 27/25/2 26/26/2 25/27/2
f 26/26/9 21/28/9 25/27/9
f 27/29/7 21/30/7 23/31/7
f 24/32/10 26/33/10 28/34/10
f 18/35/11 32/36/11 20/37/11
f 20/37/12 31/38/12 19/39/12
f 19/39/13 29/40/13 17/41/13
f 14/42/14 36/43/14 16/44/14
f 16/44/15 35/45/15 15/46/15
f 15/46/16 33/47/16 13/48/16
f 24/32/17 22/49/17 26/33/17
f 29/50/6 18/17/6 17/16/6
f 33/51/18 14/18/18 13/52/18
f 35/53/5 34/54/5 33/55/5
f 29/56/4 32/57/4 30/58/4
f 3/5/2 4/59/2 2/6/2
f 7/8/3 8/11/3 4/9/3
f 8/11/4 7/8/4 20/12/4
f 7/8/4 18/60/4 20/12/4
f 5/61/4 6/62/4 19/13/4
f 6/62/4 8/11/4 19/13/4
f 19/13/4 17/63/4 5/61/4
f 6/62/5 5/61/5 16/14/5
f 5/61/5 14/64/5 16/14/5
f 13/65/5 1/7/5 15/15/5
f 1/7/5 2/6/5 15/15/5
f 6/62/19 16/14/19 2/6/19
f 7/66/20 3/67/20 18/17/20
f 3/67/18 1/68/18 13/52/18
f 13/52/18 14/18/18 3/67/18
f 14/18/18 5/69/18 17/16/18
f 49/70/18 52/71/18 14/18/18
f 8/19/7 6/72/7 11/73/7
f 12/20/7 9/23/7 4/21/7
f 8/19/8 11/73/8 12/20/8
f 11/73/7 6/72/7 10/24/7
f 6/72/7 2/22/7 10/24/7
f 2/22/7 4/21/7 9/23/7
f 27/25/2 28/74/2 26/26/2
f 26/26/21 22/75/21 21/28/21
f 27/29/7 25/76/7 21/30/7
f 18/35/11 30/77/11 32/36/11
f 20/37/12 32/36/12 31/38/12
f 19/39/13 31/38/13 29/40/13
f 14/42/14 34/78/14 36/43/14
f 16/44/15 36/43/15 35/45/15
f 15/46/16 35/45/16 33/47/16
f 29/50/6 30/79/6 18/17/6
f 33/51/18 34/80/18 14/18/18
f 35/53/5 36/81/5 34/54/5
f 29/56/4 31/82/4 32/57/4
f 9/83/22 44/84/22 41/85/22
f 11/86/23 44/87/23 12/88/23
f 11/86/24 42/89/24 43/90/24
f 9/83/25 42/89/25 10/91/25
f 43/92/26 48/93/26 44/94/26
f 44/94/18 45/95/18 41/96/18
f 43/92/18 46/97/18 47/98/18
f 42/99/18 45/95/18 46/97/18
f 9/83/22 12/100/22 44/84/22
f 11/86/23 43/90/23 44/87/23
f 11/86/27 10/91/27 42/89/27
f 9/83/25 41/85/25 42/89/25
f 43/92/18 47/98/18 48/93/18
f 44/94/18 48/93/18 45/95/18
f 43/92/18 42/99/18 46/97/18
f 42/99/28 41/96/28 45/95/28
f 18/17/6 50/101/6 49/70/6
f 3/67/18 51/102/18 18/17/18
f 51/102/29 52/71/29 53/103/29
f 50/101/30 53/103/30 49/70/30
f 53/103/31 50/101/31 51/102/31
f 49/70/32 53/103/32 52/71/32
f 52/71/18 3/67/18 14/18/18
f 14/18/33 18/17/33 49/70/33
f 3/67/28 52/71/28 51/102/28
f 51/102/6 50/101/6 18/17/6
