mtllib HookshotTip.mtl
v 0.000463 -0.000038 -0.000146
v -0.098862 0.000016 0.074271
v -0.108362 -0.035786 -0.019218
v -0.177849 -0.000093 -0.099843
v -0.152307 -0.04249 -0.00001
v -0.250372 -0.082762 0.00009
v -0.25045 -0.000067 -0.082737
v -0.176643 0.000023 0.04248
v -0.187899 -0.000102 -0.082776
v -0.207181 0.058458 -0.058594
v -0.207188 -0.058604 -0.05849
v -0.187847 -0.058595 -0.058516
v -0.207056 0.000019 0.08275
v -0.187823 0.082766 -0.000068
v -0.098997 -0.00006 -0.074446
v -0.152324 -0.019439 -0.008009
v -0.152317 -0.030109 -0.030068
v -0.152312 0.042446 -0.000068
v -0.152347 0.030013 -0.030088
v -0.269924 -0.058612 -0.058441
v -0.269844 0.058503 0.058538
v -0.207209 -0.000065 -0.082779
v -0.250423 0.058456 -0.058552
v -0.250376 0.082712 -0.000036
v -0.152289 0.019373 -0.008066
v -0.004357 -0.000017 -0.000154
v -0.15233 -0.019418 0.007988
v -0.176626 0.04246 -0.00007
v -0.187871 0.058421 -0.058591
v -0.18782 -0.082797 0.000052
v -0.152272 -0.030057 0.03001
v -0.152268 0.000012 0.042416
v -0.176647 0.030033 0.030018
v -0.187742 -0.058495 0.058539
v -0.176647 -0.030047 0.030074
v -0.250318 0.058556 0.058502
v -0.250325 -0.058506 0.058607
v -0.20713 -0.08276 0.000048
v -0.207077 0.058558 0.05846
v -0.152351 -0.000056 -0.042494
v -0.269917 0.05845 -0.058546
v -0.152302 0.030065 0.02999
v -0.26982 -0.058512 0.058613
v -0.269822 0.000054 0.082834
v -0.250297 0.000017 0.082792
v -0.152294 0.019395 0.007931
v -0.176661 0.030028 -0.03009
v -0.2699 0.082749 0.000006
v -0.250429 -0.058606 -0.058448
v -0.269897 -0.082815 0.000126
v -0.269945 -0.000073 -0.082731
v -0.187767 0.058521 0.058464
v -0.187744 0.000071 0.082759
v -0.207084 -0.058504 0.058565
v -0.207134 0.082714 -0.000078
v -0.040468 0.00002 0.041249
v -0.176666 -0.000041 -0.042496
v -0.176653 -0.042522 0.000018
v -0.176631 -0.030094 -0.03007
v -0.283239 -0.00003 0.000038
v -0.152318 -0.000042 -0.000078
v -0.108316 0.035726 0.019064
v -0.177717 0.000066 0.099749
v -0.155894 -0.000041 -0.000034
v -0.098639 0.039478 -0.000082
v -0.108355 0.035693 -0.019327
v -0.108323 -0.035753 0.019172
v -0.098651 -0.039532 -0.000056
v -0.040545 -0.000067 -0.041518
vt 0.44 0.11
vt 0.28 0.11
vt 0.31 0.11
vt 0.47 0.11
vt 0.37 0.11
vt 0.22 0.11
vt 0.34 0.11
vt 0.19 0.11
vt 0.91 0.06
vt 0.03 0.02
vt 0.03 0.09
vt 0.06 0.31
vt 0.09 0.3
vt 0.03 0.63
vt 0.03 0.98
vt 0.5 0.63
vt 0.5 0.31
vt 0.03 0.31
vt 0.5 0.98
vt 0.03 0.3
vt 0.5 0.3
vt 0.03 0.14
vt 0.91 0.12
vt 0.19 0.08
vt 0.37 0.08
vt 0.47 0.08
vt 0.09 0.02
vt 0.09 0.06
vt 0.19 0.17
vt 0.31 0.17
vt 0.47 0.17
vt 0.19 0.2
vt 0.31 0.2
vt 0.47 0.2
vt 0.19 0.14
vt 0.34 0.14
vt 0.47 0.14
vn 0.283242 -0.856014 0.432417
vn 0.214331 -0.835658 0.505692
vn 0.166387 -0.839839 0.516648
vn 0.32609 -0.860164 0.392102
vn 0.347209 -0.871731 0.345622
vn 0.347697 -0.871792 0.345012
vn 0.214331 0.836451 0.504349
vn 0.282601 0.856624 0.431623
vn 0.166967 0.840632 0.515152
vn 0.325999 0.860897 0.390576
vn 0.346568 0.87228 0.344951
vn 0.348094 0.872433 0.342967
vn 0.21366 -0.83636 -0.504776
vn 0.282205 -0.856624 -0.431837
vn 0.166387 -0.840541 -0.515519
vn 0.325266 -0.860897 -0.391186
vn 0.346233 -0.872341 -0.345134
vn 0.347331 -0.872463 -0.343669
vn 0.282601 0.856075 -0.432661
vn 0.213752 0.835719 -0.505783
vn 0.166021 0.83993 -0.516617
vn 0.325602 0.860286 -0.392224
vn 0.34669 0.871822 -0.345927
vn 0.347423 0.871914 -0.344981
vn 0.053194 -0.001495 -0.998566
vn -0.999969 -0.000031 0.000702
vn -0.987121 -0.000031 0.159948
vn -0.987152 0.112552 0.113376
vn -0.987243 0.159062 0.000549
vn -0.987274 0.112522 -0.112156
vn -0.987335 -0.000031 -0.158574
vn -0.987304 -0.112644 -0.111911
vn -0.987243 -0.159093 0.001038
vn -0.987091 -0.112583 0.113681
vn 0.000366 0.706748 -0.707419
vn -0.000397 -0.000427 -0.999969
vn -0.00058 0.706778 -0.707419
vn 0.00061 0.999969 -0.000732
vn -0.00116 0.999969 -0.001221
vn -0.000641 -0.000671 -0.999969
vn -0.000702 -0.707755 -0.706412
vn -0.000244 -0.707724 -0.706442
vn -0.000763 -0.999969 0.000824
vn 0.001373 -0.999969 0.000671
vn 0.000946 -0.706748 0.707419
vn 0.000702 -0.706534 0.707663
vn 0.000214 0.000366 0.999969
vn 0.001404 0.000549 0.999969
vn 0 0.707999 0.706198
vn 0.00061 0.707877 0.70632
vn 0.130009 0.991485 -0.001282
vn 0.999969 0.000946 0.000336
vn 0.13007 -0.991485 0.001373
vn 0.05475 0.001404 0.998474
vn -0.568072 -0.822962 0.001068
vn -0.563768 -0.816462 0.124424
vn -0.563494 -0.816553 0.125278
vn -0.567858 -0.823115 0.001373
vn -0.563646 -0.816828 -0.122715
vn -0.563738 -0.816797 -0.12241
vn -0.568163 0.822901 -0.000305
vn -0.563646 0.816675 0.123753
vn -0.563707 0.816645 0.123569
vn -0.568041 0.822962 -0.000397
vn -0.563768 0.816462 -0.124607
vn -0.563891 0.816431 -0.12418
vn 0.999969 0.000275 -0.001221
vn 0.999969 0.000244 -0.000732
vn 0.999969 0.000244 -0.000855
vn 0.999969 0.000488 -0.00116
vn 0.999969 0.000244 -0.000763
vn 0.999969 -0.000122 -0.000732
vn 0.999969 0 -0.000946
vn 0.999969 0.000488 -0.000763
vn 0.999969 0.000519 -0.000488
vn 0.00058 0.999969 -0.000519
vn 0.000305 0.999969 -0.000458
vn 0.000458 0.706565 -0.707602
vn 0.000153 0.707602 0.706565
vn 0.000305 0.70806 0.706137
vn 0.002136 0.000793 0.999969
vn 0.002594 0.000122 0.999969
vn 0.001526 -0.705985 0.708182
vn 0.00174 -0.706717 0.70745
vn 0.000763 -0.999969 0.001251
vn 0.001282 -0.999969 0.000855
vn -0.000061 -0.707572 -0.706626
vn -0.000366 -0.707083 -0.707083
vn 0.000061 -0.000641 -0.999969
vn 0.000061 -0.000092 -1
vn 0.000458 0.706656 -0.707511
vn 0.001862 0.999969 0.000031
vn -0.000305 0.706626 -0.707572
vn 0.000031 0.707297 0.7069
vn 0.002167 0.001404 0.999969
vn 0.000519 -0.706534 0.707633
vn 0.002228 -0.999969 0.001038
vn 0 -0.707602 -0.706565
vn -0.000305 -0.000793 -0.999969
vn 0.001038 0.706534 -0.707663
vn 0.000153 -0.001129 -0.999969
vn -0.002258 0.999969 -0.000946
vn 0.001221 0.707144 0.707022
vn -0.000183 0.001343 0.999969
vn 0.001007 -0.706748 0.70745
vn -0.00174 -0.999969 0.001434
vn -0.000549 -0.70748 -0.706717
vn 0.9635 0.267647 -0.001007
vn 0.963561 0.267373 -0.000977
vn 0.963286 0.189093 -0.190435
vn 0.963836 0.188879 0.187964
vn 0.963927 0.188299 0.188086
vn 0.964019 0.000397 0.265755
vn 0.964019 0.000244 0.265725
vn 0.964019 -0.188208 0.187597
vn 0.963958 -0.188238 0.187933
vn 0.963622 -0.26722 -0.000305
vn 0.963622 -0.26719 0.000458
vn 0.963408 -0.189001 -0.190008
vn 0.963347 -0.189245 -0.190008
vn 0.963195 0.000214 -0.268746
vn 0.963225 0 -0.268593
vn 0.963286 0.189276 -0.190313
usemtl material-00B71FD5
f 67/1/1 2/2/2 63/2/3
f 67/1/1 56/3/4 2/2/2
f 67/1/1 68/4/5 56/3/4
f 68/4/5 1/4/6 56/3/4
f 2/5/7 62/6/8 63/5/9
f 56/7/10 62/6/8 2/5/7
f 56/7/10 65/8/11 62/6/8
f 65/8/11 56/7/10 1/6/12
f 15/5/13 3/6/14 4/5/15
f 69/7/16 3/6/14 15/5/13
f 69/7/16 68/8/17 3/6/14
f 68/8/17 69/7/16 1/6/18
f 66/1/19 15/2/20 4/2/21
f 66/1/19 69/3/22 15/2/20
f 66/1/19 65/4/23 69/3/22
f 65/4/23 1/4/24 69/3/22
f 26/9/25 16/10/25 25/11/25
f 60/12/26 44/13/27 21/13/28
f 60/12/26 21/13/28 48/13/29
f 60/12/26 48/13/29 41/13/30
f 60/12/26 41/13/30 51/13/31
f 60/12/26 51/13/31 20/13/32
f 60/12/26 20/13/32 50/13/33
f 60/12/26 50/13/33 43/13/34
f 60/12/26 43/13/34 44/13/27
f 10/14/35 22/15/36 23/16/37
f 23/16/37 24/17/38 10/14/35
f 24/17/38 55/18/39 10/14/35
f 22/15/36 7/19/40 23/16/37
f 7/19/40 22/15/36 11/14/41
f 49/16/42 7/19/40 11/14/41
f 49/16/42 11/14/41 38/18/43
f 6/17/44 49/16/42 38/18/43
f 6/17/44 38/18/43 54/14/45
f 37/16/46 6/17/44 54/14/45
f 37/16/46 54/14/45 13/15/47
f 45/19/48 37/16/46 13/15/47
f 36/16/49 45/19/48 13/15/47
f 39/14/50 36/16/49 13/15/47
f 36/16/49 39/14/50 55/20/39
f 24/21/38 36/16/49 55/20/39
f 25/22/51 46/11/51 26/23/52
f 26/23/52 27/11/53 16/22/53
f 26/9/54 46/11/54 27/10/54
f 64/24/55 4/25/56 3/26/57
f 64/24/55 3/26/57 68/26/58
f 64/24/55 68/26/58 67/26/59
f 64/24/55 67/26/59 63/25/60
f 64/24/61 66/26/62 4/25/63
f 64/24/61 65/26/64 66/26/62
f 64/24/61 62/26/65 65/26/64
f 64/24/61 63/25/66 62/26/65
f 31/27/67 5/27/68 61/28/69
f 32/27/70 31/27/67 61/28/69
f 42/27/71 32/27/70 61/28/69
f 18/27/72 42/27/71 61/28/69
f 18/27/72 61/28/69 19/27/73
f 19/27/73 61/28/69 40/27/74
f 40/27/74 61/28/69 17/27/75
f 17/27/75 61/28/69 5/27/68
f 28/29/76 18/29/77 47/30/78
f 28/29/76 33/30/79 18/29/77
f 33/30/79 42/30/80 18/29/77
f 33/30/79 8/31/81 42/30/80
f 8/31/81 32/31/82 42/30/80
f 8/31/81 35/30/83 32/31/82
f 35/30/83 31/30/84 32/31/82
f 35/30/83 58/29/85 31/30/84
f 58/29/85 5/29/86 31/30/84
f 17/30/87 5/29/86 58/29/85
f 59/30/88 17/30/87 58/29/85
f 40/31/89 17/30/87 59/30/88
f 57/31/90 40/31/89 59/30/88
f 19/30/91 40/31/89 57/31/90
f 47/30/78 19/30/91 57/31/90
f 18/29/77 19/30/91 47/30/78
f 48/32/92 24/32/38 41/33/93
f 48/32/92 21/33/94 24/32/38
f 21/33/94 36/33/49 24/32/38
f 36/33/49 21/33/94 45/34/48
f 21/33/94 44/34/95 45/34/48
f 44/34/95 43/33/96 45/34/48
f 43/33/96 37/33/46 45/34/48
f 43/33/96 50/32/97 37/33/46
f 50/32/97 6/32/44 37/33/46
f 49/33/42 6/32/44 50/32/97
f 20/33/98 49/33/42 50/32/97
f 7/34/40 49/33/42 20/33/98
f 51/34/99 7/34/40 20/33/98
f 7/34/40 51/34/99 41/33/93
f 23/33/37 7/34/40 41/33/93
f 24/32/38 23/33/37 41/33/93
f 29/33/100 9/34/101 10/33/35
f 10/33/35 55/32/39 29/33/100
f 55/32/39 14/32/102 29/33/100
f 55/32/39 39/33/50 14/32/102
f 39/33/50 52/33/103 14/32/102
f 52/33/103 39/33/50 53/34/104
f 39/33/50 13/34/47 53/34/104
f 13/34/47 54/33/45 53/34/104
f 54/33/45 34/33/105 53/34/104
f 54/33/45 38/32/43 34/33/105
f 38/32/43 30/32/106 34/33/105
f 38/32/43 11/33/41 30/32/106
f 11/33/41 12/33/107 30/32/106
f 11/33/41 22/34/36 12/33/107
f 22/34/36 9/34/101 12/33/107
f 9/34/101 22/34/36 10/33/35
f 14/35/108 28/35/109 29/36/110
f 14/35/108 52/36/111 28/35/109
f 52/36/111 33/36/112 28/35/109
f 52/36/111 53/37/113 33/36/112
f 53/37/113 8/37/114 33/36/112
f 53/37/113 34/36/115 8/37/114
f 34/36/115 35/36/116 8/37/114
f 34/36/115 30/35/117 35/36/116
f 30/35/117 58/35/118 35/36/116
f 59/36/119 58/35/118 30/35/117
f 12/36/120 59/36/119 30/35/117
f 57/37/121 59/36/119 12/36/120
f 9/37/122 57/37/121 12/36/120
f 47/36/123 57/37/121 9/37/122
f 29/36/110 47/36/123 9/37/122
f 28/35/109 47/36/123 29/36/110
