mtllib HookshotHandle.mtl
v 0.052474 0.000051 0.071626
v 0.052485 -0.015174 0.081241
v 0.149891 -0.014364 0.043389
v 0.052514 0.00004 0.105618
v 0.149898 0.000002 0.065191
v 0.149875 0.014441 0.043365
v 0.015214 -0.014748 0.061009
v 0.14981 -0.014428 -0.057886
v 0.14979 -0.014448 -0.043186
v 0.203629 0.058571 0.058544
v 0.102273 0.022345 -0.022339
v 0.102292 -0.000055 -0.031583
v 0.203605 -0.08279 0.000097
v 0.203525 0.058471 -0.05851
v 0.102301 0.022364 0.022515
v 0.031736 -0.015117 0.060546
v 0.052459 0.01525 0.081181
v 0.031725 0.015167 0.060552
v 0.052468 -0.015163 0.096128
v 0.149909 -0.000031 0.036191
v 0.040851 -0.000091 -0.05959
v 0.006717 -0.000049 -0.060631
v 0.015132 0.014643 -0.060634
v 0.031641 -0.015225 -0.060165
v 0.052336 -0.000126 -0.071298
v 0.044516 -0.000052 -0.05393
v 0.003101 -0.000077 -0.053907
v 0.034183 0.017887 0.000149
v 0.013491 0.017897 0.000146
v 0.013461 0.017857 -0.041902
v 0.003146 -0.000046 0.000185
v 0.003116 -0.000087 -0.041863
v 0.034186 -0.018006 -0.041847
v 0.044561 -0.000021 0.000162
v 0.003191 -0.000015 0.054277
v 0.034259 0.017924 0.042239
v 0.044638 0.000016 0.042252
v 0.102254 -0.022482 -0.022256
v 0.126338 -0.022447 -0.022281
v 0.102318 -0.031759 0.000158
v 0.126297 0.022376 -0.022298
v 0.126295 -0.031724 0.000155
v 0.151707 -0.082767 0.000177
v 0.126299 -0.000062 -0.031622
v 0.151657 0.082711 0.000008
v 0.151629 -0.000072 -0.082651
v 0.126348 -0.000027 0.031817
v 0.149903 -0.014338 0.058059
v 0.149886 0.014379 0.058029
v 0.015155 -0.014837 -0.060583
v 0.015237 0.01473 0.061
v 0.006791 -0.000009 0.061034
v 0.031629 0.015059 -0.060159
v 0.040935 0.000006 0.060011
v 0.052321 -0.015333 -0.095783
v 0.052351 -0.015325 -0.080854
v 0.149798 -0.000051 -0.065048
v 0.034171 -0.017996 -0.053892
v 0.044531 -0.000062 -0.041886
v 0.013448 -0.017992 -0.041893
v 0.013492 0.017863 -0.053903
v 0.034184 0.017852 -0.0539
v 0.034246 -0.017924 0.042248
v 0.044606 0.00001 0.054254
v 0.013523 -0.01796 0.042274
v 0.003176 -0.000006 0.042232
v 0.203572 0.082727 0.000006
v 0.20365 0.000032 0.082834
v 0.013448 -0.018032 -0.053865
v 0.034184 0.017892 -0.041928
v 0.013493 -0.018001 0.000227
v 0.034216 -0.017965 0.0002
v 0.034262 -0.017934 0.054292
v 0.01357 -0.017923 0.054289
v 0.034228 0.017918 0.054241
v 0.013536 0.017928 0.054238
v 0.013567 0.017935 0.042236
v 0.126322 0.031677 0.000076
v 0.15165 -0.058611 -0.058361
v 0.203548 -0.058634 -0.058442
v 0.151656 0.058451 -0.058466
v 0.203527 -0.000095 -0.082731
v 0.102315 0.031684 0.000115
v 0.102312 -0.022416 0.022568
v 0.12632 -0.022423 0.02253
v 0.102294 -0.000016 0.031813
v 0.151708 -0.058508 0.058651
v 0.126355 0.022353 0.022519
v 0.151714 0.058555 0.058546
v 0.203652 -0.058534 0.058613
v 0.052489 0.015257 0.096111
v 0.052342 0.015087 -0.0958
v 0.052296 -0.000115 -0.10529
v 0.149839 0.014285 -0.057873
v 0.052371 0.015095 -0.080871
v 0.149851 0.014312 -0.043203
v 0.149802 -0.000068 -0.035975
v 0.151735 0.000016 0.082835
vt 0.34 0.01
vt 0.25 0.01
vt 0.06 0.2
vt 0.13 0.2
vt 0.09 0.2
vt 0.03 0.2
vt 0.31 0.11
vt 0.37 0.11
vt 0.28 0.01
vt 0.34 0.05
vt 0.28 0.05
vt 0.44 0.01
vt 0.44 0.05
vt 0.37 0.01
vt 0.37 0.05
vt 0.19 0.01
vt 0.19 0.05
vt 0.25 0.05
vt 0.13 0.26
vt 0.03 0.26
vt 0.03 0.23
vt 0.13 0.23
vt 0.44 0.11
vt 0.34 0.11
vt 0.47 0.11
vt 0.28 0.03
vt 0.19 0.27
vt 0.97 0.14
vt 0.63 0.14
vt 0.97 0.05
vt 0.63 0.2
vt 0.97 0.2
vt 0.63 0.05
vt 0.63 0.02
vt 0.97 0.02
vt 0.85 0.25
vt 0.59 0.14
vt 0.53 0.14
vt 0.59 0.2
vt 0.53 0.05
vt 0.59 0.05
vt 0.53 0.02
vt 0.59 0.02
vt 0.53 0.2
vt 0.5 0.24
vt 0.38 0.24
vt 0.66 0.24
vt 0.84 0.24
vt 0.84 0.27
vt 0.91 0.24
vt 0.72 0.27
vt 0.78 0.24
vt 0.5 0.27
vt 0.38 0.27
vt 0.66 0.27
vt 0.81 0.25
vt 0.84 0.25
vt 0.75 0.25
vt 0.97 0.27
vn -0.550218 -0.790613 0.268563
vn 0.356578 -0.924497 -0.134526
vn -0.137089 -0.798608 0.585986
vn 0.060305 -0.945158 -0.320963
vn -0.935667 0.001831 0.352794
vn -0.16184 -0.000488 0.986785
vn -0.550432 0.788934 0.273019
vn -0.147008 0.798944 0.583117
vn 0.354015 0.926023 -0.130802
vn 0.057711 0.94409 -0.324564
vn 0.903348 0.000793 -0.428877
vn 0.265175 0.004242 -0.964171
vn 0.171789 -0.890774 0.420667
vn -0.210822 -0.781518 -0.587146
vn 0.376202 -0.005463 0.926511
vn 0.178198 0.891446 0.416547
vn -0.222541 0.775567 -0.590686
vn -0.349376 0.00177 -0.936949
vn -0.551134 -0.790796 -0.266121
vn 0.355327 -0.924833 0.135594
vn -0.936216 0.001709 -0.35139
vn -0.550493 0.78872 -0.273507
vn 0.355235 0.925871 0.128574
vn 0.905209 0.002655 0.424909
vn -0.137638 -0.79931 -0.584887
vn 0.06061 -0.944731 0.322153
vn -0.164678 -0.001038 -0.986328
vn -0.147099 0.798761 -0.583361
vn 0.058626 0.944273 0.323862
vn 0.269173 0.005127 0.963073
vn 0.171667 -0.890744 -0.420789
vn -0.209387 -0.781762 0.587329
vn 0.374401 -0.004608 -0.927213
vn 0.175817 0.892727 -0.414838
vn -0.220801 0.778252 0.587817
vn -0.347911 0.005951 0.937498
vn -0.000549 -0.000427 -0.999969
vn -0.000366 0.000824 -0.999969
vn 0.000153 0.00177 -0.999969
vn -0.000549 -0.001038 -0.999969
vn -0.000732 -0.00235 -0.999969
vn -0.001251 -0.001434 -0.999969
vn 0.000183 0.001404 0.999969
vn -0.000153 0.00058 0.999969
vn 0.000366 0.001526 0.999969
vn 0.000549 0.001434 0.999969
vn 0.000366 0.001312 0.999969
vn -0.000122 0.002228 0.999969
vn 0.499496 0.866298 -0.001007
vn 0.499405 0.866359 -0.001495
vn -0.50029 0.865841 0.000031
vn 0.999969 -0.000183 -0.000732
vn 0.999969 0.000977 -0.001038
vn 0.500259 -0.865871 0
vn 0.50087 -0.865505 0.000214
vn -0.500687 -0.865596 0.00177
vn -0.499405 -0.866329 0.000824
vn -0.999969 -0.000092 0.00058
vn -0.999969 0.000214 0.000916
vn -0.501175 0.865322 -0.001038
vn 0.499924 0.866054 0.000031
vn 0.999969 0.000671 0.000031
vn 0.499985 -0.865993 -0.000244
vn -0.499466 -0.866298 0.002472
vn -0.999969 0.001038 0.000641
vn -0.498672 0.866787 -0.000549
vn 0.999969 0.000183 -0.000793
vn 0.999969 0.000183 -0.000366
vn 0.999969 0.000183 -0.000885
vn 0.501328 -0.86523 -0.001312
vn -0.499924 -0.866054 0.002075
vn -0.999969 0.001495 0.001434
vn -0.4991 0.866512 -0.000153
vn 0.50032 0.86581 -0.002136
vn 0.999969 0.000336 -0.001434
vn 0.499374 -0.866359 -0.000641
vn -0.498245 -0.867 0.003784
vn -0.999969 -0.001038 0.002045
vn -0.500412 0.865749 -0.000153
vn 0.499069 0.866543 0.00174
vn 0.999969 0.000488 0.002594
vn 0 -0.708121 -0.706076
vn 0.000397 -0.707846 -0.70632
vn 0.001068 -0.999969 0.000793
vn -0.001251 -0.000763 -0.999969
vn -0.000916 -0.000763 -0.999969
vn -0.000366 0.707083 -0.707114
vn 0.000336 0.70571 -0.708487
vn 0.000092 1 -0.000092
vn 0.000305 0.999969 0.000275
vn 0.000336 0.706992 0.707175
vn 0.000183 0.706931 0.707266
vn -0.000183 0.001343 0.999969
vn 0.000244 0.000824 0.999969
vn 0.000427 -0.705802 0.708365
vn 0.00116 -0.706626 0.707541
vn 0.001434 -0.999969 0.000793
vn -0.895749 0.314554 -0.314066
vn -0.895657 0.314371 -0.314524
vn -0.895749 -0.001343 -0.444502
vn -0.895749 0.444502 0.000183
vn -0.895688 0.444655 0.00119
vn -0.895474 0.314554 0.314859
vn -0.895596 0.314524 0.314554
vn -0.895352 0.000397 0.445326
vn -0.001373 -0.707785 -0.706381
vn -0.001373 -0.707755 -0.706412
vn -0.000519 -0.999969 0.001099
vn -0.001526 -0.000732 -0.999969
vn -0.001465 -0.000519 -0.999969
vn -0.000946 0.706748 -0.707419
vn -0.000763 0.706687 -0.707511
vn -0.000397 0.999969 -0.000671
vn -0.000305 0.999969 -0.001038
vn -0.000183 0.707846 0.70632
vn -0.000183 0.707694 0.706473
vn 0 0.00061 0.999969
vn 0.000092 0.000671 0.999969
vn 0.000061 -0.706534 0.707633
vn 0.000214 -0.706839 0.707358
vn -0.000427 -0.999969 0.00061
vn -0.999969 -0.000092 -0.000641
vn -0.999969 -0.000244 -0.000305
vn -0.999969 -0.000244 -0.001373
vn -0.999969 0.000031 0.00116
vn -0.999969 -0.000031 0.00061
vn -0.999969 0.000092 0.001221
vn -0.999969 0.000427 -0.003021
vn -0.999969 0.000427 0.002014
vn -0.89584 -0.000397 -0.444319
vn -0.895779 -0.314188 -0.31431
vn -0.89584 -0.314768 -0.313608
vn -0.895627 -0.444746 0.000702
vn -0.89526 0.000366 0.445509
vn -0.895383 -0.314005 0.315622
vn -0.895321 -0.314493 0.315378
vn -0.895169 -0.445662 0.000824
usemtl material-00B71FD5
f 7/1/1 16/2/2 19/1/3
f 16/2/2 2/2/4 19/1/3
f 52/3/5 7/4/1 4/3/6
f 7/4/1 19/4/3 4/3/6
f 51/5/7 52/6/5 91/5/8
f 52/6/5 4/6/6 91/5/8
f 18/2/9 51/1/7 17/2/10
f 51/1/7 91/1/8 17/2/10
f 54/7/11 18/8/9 1/7/12
f 18/8/9 17/8/10 1/7/12
f 16/7/2 54/8/11 2/7/4
f 54/8/11 1/8/12 2/7/4
f 19/1/3 2/9/4 48/10/13
f 2/9/4 3/11/14 48/10/13
f 4/12/6 19/12/3 5/13/15
f 19/12/3 48/13/13 5/13/15
f 91/14/8 4/14/6 49/15/16
f 4/14/6 5/15/15 49/15/16
f 17/9/10 91/1/8 6/11/17
f 91/1/8 49/10/16 6/11/17
f 1/16/12 17/2/10 20/17/18
f 17/2/10 6/18/17 20/17/18
f 2/2/4 1/16/12 3/18/14
f 1/16/12 20/17/18 3/18/14
f 7/19/1 50/19/19 16/20/2
f 50/19/19 24/20/20 16/20/2
f 52/21/5 22/21/21 7/22/1
f 22/21/21 50/22/19 7/22/1
f 51/21/7 23/21/22 52/22/5
f 23/21/22 22/22/21 52/22/5
f 18/19/9 53/19/23 51/20/7
f 53/19/23 23/20/22 51/20/7
f 54/7/11 21/7/24 18/23/9
f 21/7/24 53/23/23 18/23/9
f 16/24/2 24/24/20 54/25/11
f 24/24/20 21/25/24 54/25/11
f 50/1/19 55/1/25 24/26/20
f 55/1/25 56/26/26 24/26/20
f 22/3/21 93/3/27 50/4/19
f 93/3/27 55/4/25 50/4/19
f 23/5/22 92/5/28 22/6/21
f 92/5/28 93/6/27 22/6/21
f 53/2/23 95/2/29 23/1/22
f 95/2/29 92/1/28 23/1/22
f 21/7/24 25/7/30 53/8/23
f 25/7/30 95/8/29 53/8/23
f 24/7/20 56/7/26 21/8/24
f 56/7/26 25/8/30 21/8/24
f 55/1/25 8/10/31 56/9/26
f 8/10/31 9/11/32 56/9/26
f 93/12/27 57/13/33 55/12/25
f 57/13/33 8/13/31 55/12/25
f 92/14/28 94/15/34 93/14/27
f 94/15/34 57/15/33 93/14/27
f 95/9/29 96/11/35 92/1/28
f 96/11/35 94/10/34 92/1/28
f 25/16/30 97/17/36 95/2/29
f 97/17/36 96/18/35 95/2/29
f 56/2/26 9/18/32 25/16/30
f 9/18/32 97/17/36 25/16/30
f 26/27/37 61/27/38 62/27/39
f 26/27/37 27/27/40 61/27/38
f 69/27/41 27/27/40 26/27/37
f 58/27/42 69/27/41 26/27/37
f 64/27/43 75/27/44 76/27/45
f 64/27/43 76/27/45 35/27/46
f 74/27/47 64/27/43 35/27/46
f 73/27/48 64/27/43 74/27/47
f 28/28/49 70/29/50 29/30/51
f 59/31/52 70/29/50 28/28/49
f 34/32/53 59/31/52 28/28/49
f 33/29/54 59/31/52 34/32/53
f 72/28/55 33/29/54 34/32/53
f 60/33/56 33/29/54 72/28/55
f 71/30/57 60/33/56 72/28/55
f 32/34/58 60/33/56 71/30/57
f 31/35/59 32/34/58 71/30/57
f 30/33/60 32/34/58 31/35/59
f 29/30/51 30/33/60 31/35/59
f 70/29/50 30/33/60 29/30/51
f 28/28/49 29/30/51 36/29/61
f 28/28/49 36/29/61 37/31/62
f 34/32/53 28/28/49 37/31/62
f 34/32/53 37/31/62 63/29/63
f 72/28/55 34/32/53 63/29/63
f 72/28/55 63/29/63 65/33/64
f 71/30/57 72/28/55 65/33/64
f 71/30/57 65/33/64 66/34/65
f 31/35/59 71/30/57 66/34/65
f 31/35/59 66/34/65 77/33/66
f 29/30/51 31/35/59 77/33/66
f 29/30/51 77/33/66 36/29/61
f 80/36/67 82/36/68 14/36/67
f 80/36/67 14/36/67 13/36/69
f 14/36/67 67/36/69 13/36/69
f 10/36/67 13/36/69 67/36/69
f 90/36/67 13/36/69 10/36/67
f 90/36/67 10/36/67 68/36/68
f 33/37/54 58/38/70 59/39/52
f 69/40/71 58/38/70 33/37/54
f 60/41/56 69/40/71 33/37/54
f 27/42/72 69/40/71 60/41/56
f 32/43/58 27/42/72 60/41/56
f 61/40/73 27/42/72 32/43/58
f 30/41/60 61/40/73 32/43/58
f 62/38/74 61/40/73 30/41/60
f 70/37/50 62/38/74 30/41/60
f 26/44/75 62/38/74 70/37/50
f 59/39/52 26/44/75 70/37/50
f 58/38/70 26/44/75 59/39/52
f 63/37/63 37/39/62 73/38/76
f 63/37/63 73/38/76 74/40/77
f 65/41/64 63/37/63 74/40/77
f 65/41/64 74/40/77 35/42/78
f 66/43/65 65/41/64 35/42/78
f 66/43/65 35/42/78 76/40/79
f 77/41/66 66/43/65 76/40/79
f 77/41/66 76/40/79 75/38/80
f 36/37/61 77/41/66 75/38/80
f 36/37/61 75/38/80 64/44/81
f 37/39/62 36/37/61 64/44/81
f 37/39/62 64/44/81 73/38/76
f 38/45/82 39/45/83 40/46/84
f 44/47/85 39/45/83 38/45/82
f 12/47/86 44/47/85 38/45/82
f 41/45/87 44/47/85 12/47/86
f 11/45/88 41/45/87 12/47/86
f 78/46/89 41/45/87 11/45/88
f 83/46/90 78/46/89 11/45/88
f 83/46/90 15/45/91 78/46/89
f 15/45/91 88/45/92 78/46/89
f 15/45/91 86/47/93 88/45/92
f 86/47/93 47/47/94 88/45/92
f 86/47/93 84/45/95 47/47/94
f 84/45/95 85/45/96 47/47/94
f 84/45/95 40/46/84 85/45/96
f 40/46/84 42/46/97 85/45/96
f 39/45/83 42/46/97 40/46/84
f 41/48/98 81/49/99 44/50/100
f 45/51/101 81/49/99 41/48/98
f 78/52/102 45/51/101 41/48/98
f 78/52/102 88/48/103 45/51/101
f 88/48/103 89/49/104 45/51/101
f 88/48/103 47/50/105 89/49/104
f 79/53/106 80/53/107 43/54/108
f 82/55/109 80/53/107 79/53/106
f 46/55/110 82/55/109 79/53/106
f 14/53/111 82/55/109 46/55/110
f 81/53/112 14/53/111 46/55/110
f 67/54/113 14/53/111 81/53/112
f 45/54/114 67/54/113 81/53/112
f 45/54/114 89/53/115 67/54/113
f 89/53/115 10/53/116 67/54/113
f 89/53/115 98/55/117 10/53/116
f 98/55/117 68/55/118 10/53/116
f 98/55/117 87/53/119 68/55/118
f 87/53/119 90/53/120 68/55/118
f 87/53/119 43/54/108 90/53/120
f 43/54/108 13/54/121 90/53/120
f 80/53/107 13/54/121 43/54/108
f 15/56/122 84/56/123 86/57/124
f 15/56/122 40/58/125 84/56/123
f 15/56/122 83/58/126 40/58/125
f 11/56/127 12/57/128 38/56/129
f 11/56/127 38/56/129 40/58/125
f 11/56/127 40/58/125 83/58/126
f 81/49/99 46/59/130 44/50/100
f 44/50/100 46/59/130 39/48/131
f 46/59/130 79/49/132 39/48/131
f 39/48/131 79/49/132 42/52/133
f 47/50/105 98/59/134 89/49/104
f 47/50/105 85/48/135 98/59/134
f 85/48/135 87/49/136 98/59/134
f 85/48/135 42/52/133 87/49/136
f 42/52/133 43/51/137 87/49/136
f 79/49/132 43/51/137 42/52/133
